<mxfile host="app.diagrams.net" modified="2024-03-23T23:49:57.397Z" agent="Mozilla/5.0 (Windows NT 10.0; Win64; x64) AppleWebKit/537.36 (KHTML, like Gecko) Chrome/122.0.0.0 Safari/537.36" etag="grVe9OYI6M62hYow9_Hi" version="24.0.1" type="github" pages="5">
  <diagram name="RTL_Gen-Sin" id="v-MAoa454MW4889vNwae">
    <mxGraphModel dx="2326" dy="801" grid="0" gridSize="10" guides="1" tooltips="1" connect="1" arrows="1" fold="1" page="0" pageScale="1" pageWidth="850" pageHeight="1100" math="0" shadow="0">
      <root>
        <mxCell id="0" />
        <mxCell id="1" parent="0" />
        <mxCell id="lxvA4HqQc5Pkrmw_3c48-1" value="" style="group" vertex="1" connectable="0" parent="1">
          <mxGeometry x="-10" y="120" width="96" height="140" as="geometry" />
        </mxCell>
        <mxCell id="lxvA4HqQc5Pkrmw_3c48-2" value="" style="rounded=0;whiteSpace=wrap;html=1;" vertex="1" parent="lxvA4HqQc5Pkrmw_3c48-1">
          <mxGeometry width="96" height="140" as="geometry" />
        </mxCell>
        <mxCell id="lxvA4HqQc5Pkrmw_3c48-3" value="" style="triangle;whiteSpace=wrap;html=1;rotation=0;" vertex="1" parent="lxvA4HqQc5Pkrmw_3c48-1">
          <mxGeometry y="100" width="20" height="30" as="geometry" />
        </mxCell>
        <mxCell id="lxvA4HqQc5Pkrmw_3c48-4" value="&lt;font style=&quot;font-size: 21px;&quot;&gt;D&lt;/font&gt;" style="text;html=1;strokeColor=none;fillColor=none;align=center;verticalAlign=middle;whiteSpace=wrap;rounded=0;" vertex="1" parent="lxvA4HqQc5Pkrmw_3c48-1">
          <mxGeometry y="10" width="20" height="30" as="geometry" />
        </mxCell>
        <mxCell id="lxvA4HqQc5Pkrmw_3c48-5" value="&lt;font style=&quot;font-size: 21px;&quot;&gt;Q&lt;/font&gt;" style="text;html=1;strokeColor=none;fillColor=none;align=center;verticalAlign=middle;whiteSpace=wrap;rounded=0;" vertex="1" parent="lxvA4HqQc5Pkrmw_3c48-1">
          <mxGeometry x="76" y="10" width="20" height="30" as="geometry" />
        </mxCell>
        <mxCell id="lxvA4HqQc5Pkrmw_3c48-6" value="&lt;font style=&quot;font-size: 21px;&quot;&gt;RST&lt;/font&gt;" style="text;html=1;strokeColor=none;fillColor=none;align=center;verticalAlign=middle;whiteSpace=wrap;rounded=0;" vertex="1" parent="lxvA4HqQc5Pkrmw_3c48-1">
          <mxGeometry x="33" width="30" height="30" as="geometry" />
        </mxCell>
        <mxCell id="lxvA4HqQc5Pkrmw_3c48-7" value="&lt;font style=&quot;font-size: 21px;&quot;&gt;CE&lt;/font&gt;" style="text;html=1;strokeColor=none;fillColor=none;align=center;verticalAlign=middle;whiteSpace=wrap;rounded=0;" vertex="1" parent="lxvA4HqQc5Pkrmw_3c48-1">
          <mxGeometry y="55" width="30" height="30" as="geometry" />
        </mxCell>
        <mxCell id="lxvA4HqQc5Pkrmw_3c48-8" value="&lt;p style=&quot;line-height: 120%;&quot;&gt;&lt;br&gt;&lt;/p&gt;&lt;p style=&quot;line-height: 120%;&quot;&gt;&lt;br&gt;&lt;/p&gt;" style="shape=offPageConnector;whiteSpace=wrap;html=1;rotation=-90;" vertex="1" parent="1">
          <mxGeometry x="-455" y="70" width="30" height="30" as="geometry" />
        </mxCell>
        <mxCell id="lxvA4HqQc5Pkrmw_3c48-9" value="&lt;p style=&quot;line-height: 120%;&quot;&gt;&lt;br&gt;&lt;/p&gt;&lt;p style=&quot;line-height: 120%;&quot;&gt;&lt;br&gt;&lt;/p&gt;" style="shape=offPageConnector;whiteSpace=wrap;html=1;rotation=-90;direction=west;" vertex="1" parent="1">
          <mxGeometry x="570" y="280" width="30" height="30" as="geometry" />
        </mxCell>
        <mxCell id="lxvA4HqQc5Pkrmw_3c48-18" style="edgeStyle=orthogonalEdgeStyle;rounded=0;orthogonalLoop=1;jettySize=auto;html=1;exitX=1;exitY=0.5;exitDx=0;exitDy=0;exitPerimeter=0;entryX=0.5;entryY=0;entryDx=0;entryDy=0;endArrow=none;endFill=0;" edge="1" parent="1" source="lxvA4HqQc5Pkrmw_3c48-11" target="lxvA4HqQc5Pkrmw_3c48-6">
          <mxGeometry relative="1" as="geometry" />
        </mxCell>
        <mxCell id="lxvA4HqQc5Pkrmw_3c48-11" value="" style="verticalLabelPosition=bottom;shadow=0;dashed=0;align=center;html=1;verticalAlign=top;shape=mxgraph.electrical.logic_gates.logic_gate;operation=or;" vertex="1" parent="1">
          <mxGeometry x="-300" y="70" width="100" height="60" as="geometry" />
        </mxCell>
        <mxCell id="lxvA4HqQc5Pkrmw_3c48-12" value="" style="verticalLabelPosition=bottom;shadow=0;dashed=0;align=center;html=1;verticalAlign=top;shape=mxgraph.electrical.logic_gates.inverter_2" vertex="1" parent="1">
          <mxGeometry x="-380" y="120" width="50" height="30" as="geometry" />
        </mxCell>
        <mxCell id="lxvA4HqQc5Pkrmw_3c48-27" style="edgeStyle=orthogonalEdgeStyle;rounded=0;orthogonalLoop=1;jettySize=auto;html=1;exitX=0.5;exitY=0;exitDx=0;exitDy=0;entryX=0;entryY=0.5;entryDx=0;entryDy=0;endArrow=none;endFill=0;" edge="1" parent="1" source="lxvA4HqQc5Pkrmw_3c48-13" target="lxvA4HqQc5Pkrmw_3c48-4">
          <mxGeometry relative="1" as="geometry" />
        </mxCell>
        <mxCell id="lxvA4HqQc5Pkrmw_3c48-48" style="edgeStyle=orthogonalEdgeStyle;rounded=0;orthogonalLoop=1;jettySize=auto;html=1;exitX=0;exitY=0.5;exitDx=0;exitDy=0;endArrow=none;endFill=0;jumpStyle=sharp;" edge="1" parent="1" source="lxvA4HqQc5Pkrmw_3c48-13">
          <mxGeometry relative="1" as="geometry">
            <mxPoint x="-320" y="310" as="targetPoint" />
            <Array as="points">
              <mxPoint x="-320" y="330" />
            </Array>
          </mxGeometry>
        </mxCell>
        <mxCell id="lxvA4HqQc5Pkrmw_3c48-13" value="&lt;font style=&quot;font-size: 22px;&quot;&gt;+&lt;/font&gt;" style="ellipse;whiteSpace=wrap;html=1;aspect=fixed;" vertex="1" parent="1">
          <mxGeometry x="-200" y="290" width="80" height="80" as="geometry" />
        </mxCell>
        <mxCell id="lxvA4HqQc5Pkrmw_3c48-14" value="&lt;p style=&quot;line-height: 120%;&quot;&gt;&lt;br&gt;&lt;/p&gt;&lt;p style=&quot;line-height: 120%;&quot;&gt;&lt;br&gt;&lt;/p&gt;" style="shape=offPageConnector;whiteSpace=wrap;html=1;rotation=-90;" vertex="1" parent="1">
          <mxGeometry x="-455" y="120" width="30" height="30" as="geometry" />
        </mxCell>
        <mxCell id="lxvA4HqQc5Pkrmw_3c48-15" style="edgeStyle=orthogonalEdgeStyle;rounded=0;orthogonalLoop=1;jettySize=auto;html=1;exitX=0.5;exitY=1;exitDx=0;exitDy=0;entryX=0;entryY=0.25;entryDx=0;entryDy=0;entryPerimeter=0;endArrow=none;endFill=0;" edge="1" parent="1" source="lxvA4HqQc5Pkrmw_3c48-8" target="lxvA4HqQc5Pkrmw_3c48-11">
          <mxGeometry relative="1" as="geometry" />
        </mxCell>
        <mxCell id="lxvA4HqQc5Pkrmw_3c48-16" style="edgeStyle=orthogonalEdgeStyle;rounded=0;orthogonalLoop=1;jettySize=auto;html=1;exitX=1;exitY=0.5;exitDx=0;exitDy=0;exitPerimeter=0;entryX=0;entryY=0.75;entryDx=0;entryDy=0;entryPerimeter=0;endArrow=none;endFill=0;" edge="1" parent="1" source="lxvA4HqQc5Pkrmw_3c48-12" target="lxvA4HqQc5Pkrmw_3c48-11">
          <mxGeometry relative="1" as="geometry" />
        </mxCell>
        <mxCell id="lxvA4HqQc5Pkrmw_3c48-17" style="edgeStyle=orthogonalEdgeStyle;rounded=0;orthogonalLoop=1;jettySize=auto;html=1;exitX=0.5;exitY=1;exitDx=0;exitDy=0;entryX=0;entryY=0.5;entryDx=0;entryDy=0;entryPerimeter=0;endArrow=none;endFill=0;" edge="1" parent="1" source="lxvA4HqQc5Pkrmw_3c48-14" target="lxvA4HqQc5Pkrmw_3c48-12">
          <mxGeometry relative="1" as="geometry" />
        </mxCell>
        <mxCell id="lxvA4HqQc5Pkrmw_3c48-19" value="" style="group" vertex="1" connectable="0" parent="1">
          <mxGeometry x="329" y="270" width="96" height="140" as="geometry" />
        </mxCell>
        <mxCell id="lxvA4HqQc5Pkrmw_3c48-20" value="" style="rounded=0;whiteSpace=wrap;html=1;" vertex="1" parent="lxvA4HqQc5Pkrmw_3c48-19">
          <mxGeometry width="96" height="140" as="geometry" />
        </mxCell>
        <mxCell id="lxvA4HqQc5Pkrmw_3c48-21" value="" style="triangle;whiteSpace=wrap;html=1;rotation=0;" vertex="1" parent="lxvA4HqQc5Pkrmw_3c48-19">
          <mxGeometry y="100" width="20" height="30" as="geometry" />
        </mxCell>
        <mxCell id="lxvA4HqQc5Pkrmw_3c48-22" value="&lt;font style=&quot;font-size: 21px;&quot;&gt;D&lt;/font&gt;" style="text;html=1;strokeColor=none;fillColor=none;align=center;verticalAlign=middle;whiteSpace=wrap;rounded=0;" vertex="1" parent="lxvA4HqQc5Pkrmw_3c48-19">
          <mxGeometry y="10" width="20" height="30" as="geometry" />
        </mxCell>
        <mxCell id="lxvA4HqQc5Pkrmw_3c48-23" value="&lt;font style=&quot;font-size: 21px;&quot;&gt;Q&lt;/font&gt;" style="text;html=1;strokeColor=none;fillColor=none;align=center;verticalAlign=middle;whiteSpace=wrap;rounded=0;" vertex="1" parent="lxvA4HqQc5Pkrmw_3c48-19">
          <mxGeometry x="76" y="10" width="20" height="30" as="geometry" />
        </mxCell>
        <mxCell id="lxvA4HqQc5Pkrmw_3c48-24" value="&lt;font style=&quot;font-size: 21px;&quot;&gt;RST&lt;/font&gt;" style="text;html=1;strokeColor=none;fillColor=none;align=center;verticalAlign=middle;whiteSpace=wrap;rounded=0;" vertex="1" parent="lxvA4HqQc5Pkrmw_3c48-19">
          <mxGeometry x="33" width="30" height="30" as="geometry" />
        </mxCell>
        <mxCell id="lxvA4HqQc5Pkrmw_3c48-25" value="&lt;font style=&quot;font-size: 21px;&quot;&gt;CE&lt;/font&gt;" style="text;html=1;strokeColor=none;fillColor=none;align=center;verticalAlign=middle;whiteSpace=wrap;rounded=0;" vertex="1" parent="lxvA4HqQc5Pkrmw_3c48-19">
          <mxGeometry y="55" width="30" height="30" as="geometry" />
        </mxCell>
        <mxCell id="lxvA4HqQc5Pkrmw_3c48-26" style="edgeStyle=orthogonalEdgeStyle;rounded=0;orthogonalLoop=1;jettySize=auto;html=1;exitX=1;exitY=0.5;exitDx=0;exitDy=0;entryX=1;entryY=0.5;entryDx=0;entryDy=0;endArrow=none;endFill=0;" edge="1" parent="1" source="lxvA4HqQc5Pkrmw_3c48-5" target="lxvA4HqQc5Pkrmw_3c48-13">
          <mxGeometry relative="1" as="geometry">
            <Array as="points">
              <mxPoint x="110" y="145" />
              <mxPoint x="110" y="330" />
            </Array>
          </mxGeometry>
        </mxCell>
        <mxCell id="lxvA4HqQc5Pkrmw_3c48-30" style="edgeStyle=orthogonalEdgeStyle;rounded=0;orthogonalLoop=1;jettySize=auto;html=1;exitX=0.5;exitY=1;exitDx=0;exitDy=0;entryX=0;entryY=0.5;entryDx=0;entryDy=0;jumpStyle=sharp;endArrow=none;endFill=0;" edge="1" parent="1" source="lxvA4HqQc5Pkrmw_3c48-28" target="lxvA4HqQc5Pkrmw_3c48-7">
          <mxGeometry relative="1" as="geometry" />
        </mxCell>
        <mxCell id="lxvA4HqQc5Pkrmw_3c48-28" value="&lt;p style=&quot;line-height: 120%;&quot;&gt;&lt;br&gt;&lt;/p&gt;&lt;p style=&quot;line-height: 120%;&quot;&gt;&lt;br&gt;&lt;/p&gt;" style="shape=offPageConnector;whiteSpace=wrap;html=1;rotation=-90;" vertex="1" parent="1">
          <mxGeometry x="-455" y="200" width="30" height="30" as="geometry" />
        </mxCell>
        <mxCell id="lxvA4HqQc5Pkrmw_3c48-31" style="edgeStyle=orthogonalEdgeStyle;rounded=0;orthogonalLoop=1;jettySize=auto;html=1;exitX=0.5;exitY=1;exitDx=0;exitDy=0;entryX=0;entryY=0.5;entryDx=0;entryDy=0;endArrow=none;endFill=0;jumpStyle=sharp;" edge="1" parent="1" source="lxvA4HqQc5Pkrmw_3c48-29" target="lxvA4HqQc5Pkrmw_3c48-3">
          <mxGeometry relative="1" as="geometry" />
        </mxCell>
        <mxCell id="lxvA4HqQc5Pkrmw_3c48-51" style="edgeStyle=orthogonalEdgeStyle;rounded=0;orthogonalLoop=1;jettySize=auto;html=1;exitX=0.5;exitY=1;exitDx=0;exitDy=0;entryX=0;entryY=0.5;entryDx=0;entryDy=0;endArrow=none;endFill=0;" edge="1" parent="1" source="lxvA4HqQc5Pkrmw_3c48-29" target="lxvA4HqQc5Pkrmw_3c48-21">
          <mxGeometry relative="1" as="geometry">
            <Array as="points">
              <mxPoint x="-410" y="255" />
              <mxPoint x="-410" y="430" />
              <mxPoint x="240" y="430" />
              <mxPoint x="240" y="385" />
            </Array>
          </mxGeometry>
        </mxCell>
        <mxCell id="lxvA4HqQc5Pkrmw_3c48-29" value="&lt;p style=&quot;line-height: 120%;&quot;&gt;&lt;br&gt;&lt;/p&gt;&lt;p style=&quot;line-height: 120%;&quot;&gt;&lt;br&gt;&lt;/p&gt;" style="shape=offPageConnector;whiteSpace=wrap;html=1;rotation=-90;" vertex="1" parent="1">
          <mxGeometry x="-455" y="240" width="30" height="30" as="geometry" />
        </mxCell>
        <mxCell id="lxvA4HqQc5Pkrmw_3c48-32" style="edgeStyle=orthogonalEdgeStyle;rounded=0;orthogonalLoop=1;jettySize=auto;html=1;exitX=0.5;exitY=0;exitDx=0;exitDy=0;entryX=0.5;entryY=0;entryDx=0;entryDy=0;endArrow=none;endFill=0;" edge="1" parent="1" source="lxvA4HqQc5Pkrmw_3c48-6" target="lxvA4HqQc5Pkrmw_3c48-24">
          <mxGeometry relative="1" as="geometry" />
        </mxCell>
        <mxCell id="lxvA4HqQc5Pkrmw_3c48-43" style="edgeStyle=orthogonalEdgeStyle;rounded=0;orthogonalLoop=1;jettySize=auto;html=1;exitX=1;exitY=0.5;exitDx=0;exitDy=0;entryX=0;entryY=0.5;entryDx=0;entryDy=0;endArrow=none;endFill=0;" edge="1" parent="1" source="lxvA4HqQc5Pkrmw_3c48-41" target="lxvA4HqQc5Pkrmw_3c48-22">
          <mxGeometry relative="1" as="geometry" />
        </mxCell>
        <mxCell id="lxvA4HqQc5Pkrmw_3c48-41" value="&lt;font style=&quot;font-size: 20px;&quot;&gt;Sin ROM&lt;/font&gt;" style="rounded=0;whiteSpace=wrap;html=1;" vertex="1" parent="1">
          <mxGeometry x="150" y="265" width="120" height="60" as="geometry" />
        </mxCell>
        <mxCell id="lxvA4HqQc5Pkrmw_3c48-45" style="edgeStyle=orthogonalEdgeStyle;rounded=0;orthogonalLoop=1;jettySize=auto;html=1;exitX=1;exitY=0.5;exitDx=0;exitDy=0;entryX=0;entryY=0.5;entryDx=0;entryDy=0;endArrow=none;endFill=0;" edge="1" parent="1" source="lxvA4HqQc5Pkrmw_3c48-5" target="lxvA4HqQc5Pkrmw_3c48-41">
          <mxGeometry relative="1" as="geometry">
            <Array as="points">
              <mxPoint x="110" y="145" />
              <mxPoint x="110" y="295" />
            </Array>
          </mxGeometry>
        </mxCell>
        <mxCell id="lxvA4HqQc5Pkrmw_3c48-47" value="" style="edgeStyle=none;orthogonalLoop=1;jettySize=auto;html=1;rounded=0;endArrow=none;endFill=0;" edge="1" parent="1">
          <mxGeometry width="100" relative="1" as="geometry">
            <mxPoint x="-350" y="310" as="sourcePoint" />
            <mxPoint x="-290" y="310" as="targetPoint" />
            <Array as="points" />
          </mxGeometry>
        </mxCell>
        <mxCell id="lxvA4HqQc5Pkrmw_3c48-49" value="&lt;font style=&quot;font-size: 22px;&quot;&gt;&#39;1&#39;&lt;/font&gt;" style="text;html=1;align=center;verticalAlign=middle;resizable=0;points=[];autosize=1;strokeColor=none;fillColor=none;" vertex="1" parent="1">
          <mxGeometry x="-340" y="275" width="40" height="40" as="geometry" />
        </mxCell>
        <mxCell id="lxvA4HqQc5Pkrmw_3c48-50" style="edgeStyle=orthogonalEdgeStyle;rounded=0;orthogonalLoop=1;jettySize=auto;html=1;exitX=0;exitY=0.5;exitDx=0;exitDy=0;entryX=0.5;entryY=1;entryDx=0;entryDy=0;endArrow=none;endFill=0;jumpStyle=sharp;" edge="1" parent="1" source="lxvA4HqQc5Pkrmw_3c48-25" target="lxvA4HqQc5Pkrmw_3c48-28">
          <mxGeometry relative="1" as="geometry">
            <Array as="points">
              <mxPoint x="140" y="340" />
              <mxPoint x="140" y="410" />
              <mxPoint x="-390" y="410" />
              <mxPoint x="-390" y="215" />
            </Array>
          </mxGeometry>
        </mxCell>
        <mxCell id="lxvA4HqQc5Pkrmw_3c48-52" style="edgeStyle=orthogonalEdgeStyle;rounded=0;orthogonalLoop=1;jettySize=auto;html=1;exitX=1;exitY=0.5;exitDx=0;exitDy=0;entryX=0.5;entryY=1;entryDx=0;entryDy=0;endArrow=none;endFill=0;" edge="1" parent="1" source="lxvA4HqQc5Pkrmw_3c48-23" target="lxvA4HqQc5Pkrmw_3c48-9">
          <mxGeometry relative="1" as="geometry" />
        </mxCell>
        <mxCell id="lxvA4HqQc5Pkrmw_3c48-54" value="&lt;font style=&quot;font-size: 22px;&quot;&gt;o_sin&lt;/font&gt;" style="text;html=1;align=center;verticalAlign=middle;resizable=0;points=[];autosize=1;strokeColor=none;fillColor=none;" vertex="1" parent="1">
          <mxGeometry x="600" y="275" width="80" height="40" as="geometry" />
        </mxCell>
        <mxCell id="lxvA4HqQc5Pkrmw_3c48-55" value="&lt;font style=&quot;font-size: 22px;&quot;&gt;RESET_G&lt;/font&gt;" style="text;html=1;align=center;verticalAlign=middle;resizable=0;points=[];autosize=1;strokeColor=none;fillColor=none;" vertex="1" parent="1">
          <mxGeometry x="-585" y="65" width="130" height="40" as="geometry" />
        </mxCell>
        <mxCell id="lxvA4HqQc5Pkrmw_3c48-56" value="&lt;font style=&quot;font-size: 22px;&quot;&gt;i_fen&lt;/font&gt;" style="text;html=1;align=center;verticalAlign=middle;resizable=0;points=[];autosize=1;strokeColor=none;fillColor=none;" vertex="1" parent="1">
          <mxGeometry x="-525" y="115" width="70" height="40" as="geometry" />
        </mxCell>
        <mxCell id="lxvA4HqQc5Pkrmw_3c48-57" value="&lt;font style=&quot;font-size: 22px;&quot;&gt;i_clk&lt;/font&gt;" style="text;html=1;align=center;verticalAlign=middle;resizable=0;points=[];autosize=1;strokeColor=none;fillColor=none;" vertex="1" parent="1">
          <mxGeometry x="-525" y="235" width="70" height="40" as="geometry" />
        </mxCell>
        <mxCell id="lxvA4HqQc5Pkrmw_3c48-58" value="&lt;font style=&quot;font-size: 22px;&quot;&gt;i_cen&lt;/font&gt;" style="text;html=1;align=center;verticalAlign=middle;resizable=0;points=[];autosize=1;strokeColor=none;fillColor=none;" vertex="1" parent="1">
          <mxGeometry x="-530" y="195" width="80" height="40" as="geometry" />
        </mxCell>
        <mxCell id="lxvA4HqQc5Pkrmw_3c48-60" value="" style="endArrow=none;html=1;rounded=0;" edge="1" parent="1">
          <mxGeometry width="50" height="50" relative="1" as="geometry">
            <mxPoint x="90" y="300" as="sourcePoint" />
            <mxPoint x="130" y="270" as="targetPoint" />
          </mxGeometry>
        </mxCell>
        <mxCell id="lxvA4HqQc5Pkrmw_3c48-61" value="&lt;font style=&quot;font-size: 18px;&quot;&gt;4&lt;/font&gt;" style="text;html=1;align=center;verticalAlign=middle;resizable=0;points=[];autosize=1;strokeColor=none;fillColor=none;" vertex="1" parent="1">
          <mxGeometry x="110" y="240" width="30" height="40" as="geometry" />
        </mxCell>
        <mxCell id="lxvA4HqQc5Pkrmw_3c48-62" value="&lt;font style=&quot;font-size: 18px;&quot;&gt;4&lt;/font&gt;" style="text;html=1;align=center;verticalAlign=middle;resizable=0;points=[];autosize=1;strokeColor=none;fillColor=none;" vertex="1" parent="1">
          <mxGeometry x="-190" y="250" width="30" height="40" as="geometry" />
        </mxCell>
        <mxCell id="lxvA4HqQc5Pkrmw_3c48-65" value="" style="endArrow=none;html=1;rounded=0;" edge="1" parent="1">
          <mxGeometry width="50" height="50" relative="1" as="geometry">
            <mxPoint x="-180" y="290" as="sourcePoint" />
            <mxPoint x="-140" y="260" as="targetPoint" />
          </mxGeometry>
        </mxCell>
        <mxCell id="lxvA4HqQc5Pkrmw_3c48-66" value="" style="endArrow=none;html=1;rounded=0;" edge="1" parent="1">
          <mxGeometry width="50" height="50" relative="1" as="geometry">
            <mxPoint x="280" y="310" as="sourcePoint" />
            <mxPoint x="320" y="280" as="targetPoint" />
          </mxGeometry>
        </mxCell>
        <mxCell id="lxvA4HqQc5Pkrmw_3c48-67" value="" style="endArrow=none;html=1;rounded=0;" edge="1" parent="1">
          <mxGeometry width="50" height="50" relative="1" as="geometry">
            <mxPoint x="480" y="305" as="sourcePoint" />
            <mxPoint x="520" y="275" as="targetPoint" />
          </mxGeometry>
        </mxCell>
        <mxCell id="lxvA4HqQc5Pkrmw_3c48-68" value="&lt;font style=&quot;font-size: 18px;&quot;&gt;8&lt;/font&gt;" style="text;html=1;align=center;verticalAlign=middle;resizable=0;points=[];autosize=1;strokeColor=none;fillColor=none;" vertex="1" parent="1">
          <mxGeometry x="280" y="260" width="30" height="40" as="geometry" />
        </mxCell>
        <mxCell id="lxvA4HqQc5Pkrmw_3c48-69" value="&lt;font style=&quot;font-size: 18px;&quot;&gt;8&lt;/font&gt;" style="text;html=1;align=center;verticalAlign=middle;resizable=0;points=[];autosize=1;strokeColor=none;fillColor=none;" vertex="1" parent="1">
          <mxGeometry x="470" y="260" width="30" height="40" as="geometry" />
        </mxCell>
      </root>
    </mxGraphModel>
  </diagram>
  <diagram id="TjetRkL7iNZCjB67uCYJ" name="RTL_Gen-Cos">
    <mxGraphModel dx="4042" dy="1282" grid="0" gridSize="10" guides="1" tooltips="1" connect="1" arrows="1" fold="1" page="0" pageScale="1" pageWidth="850" pageHeight="1100" math="0" shadow="0">
      <root>
        <mxCell id="0" />
        <mxCell id="1" parent="0" />
        <mxCell id="j3UjTWgJ3GyvdFhE1y_W-1" value="" style="group" vertex="1" connectable="0" parent="1">
          <mxGeometry x="-10" y="120" width="96" height="140" as="geometry" />
        </mxCell>
        <mxCell id="j3UjTWgJ3GyvdFhE1y_W-2" value="" style="rounded=0;whiteSpace=wrap;html=1;" vertex="1" parent="j3UjTWgJ3GyvdFhE1y_W-1">
          <mxGeometry width="96" height="140" as="geometry" />
        </mxCell>
        <mxCell id="j3UjTWgJ3GyvdFhE1y_W-3" value="" style="triangle;whiteSpace=wrap;html=1;rotation=0;" vertex="1" parent="j3UjTWgJ3GyvdFhE1y_W-1">
          <mxGeometry y="100" width="20" height="30" as="geometry" />
        </mxCell>
        <mxCell id="j3UjTWgJ3GyvdFhE1y_W-4" value="&lt;font style=&quot;font-size: 21px;&quot;&gt;D&lt;/font&gt;" style="text;html=1;strokeColor=none;fillColor=none;align=center;verticalAlign=middle;whiteSpace=wrap;rounded=0;" vertex="1" parent="j3UjTWgJ3GyvdFhE1y_W-1">
          <mxGeometry y="10" width="20" height="30" as="geometry" />
        </mxCell>
        <mxCell id="j3UjTWgJ3GyvdFhE1y_W-5" value="&lt;font style=&quot;font-size: 21px;&quot;&gt;Q&lt;/font&gt;" style="text;html=1;strokeColor=none;fillColor=none;align=center;verticalAlign=middle;whiteSpace=wrap;rounded=0;" vertex="1" parent="j3UjTWgJ3GyvdFhE1y_W-1">
          <mxGeometry x="76" y="10" width="20" height="30" as="geometry" />
        </mxCell>
        <mxCell id="j3UjTWgJ3GyvdFhE1y_W-6" value="&lt;font style=&quot;font-size: 21px;&quot;&gt;RST&lt;/font&gt;" style="text;html=1;strokeColor=none;fillColor=none;align=center;verticalAlign=middle;whiteSpace=wrap;rounded=0;" vertex="1" parent="j3UjTWgJ3GyvdFhE1y_W-1">
          <mxGeometry x="33" width="30" height="30" as="geometry" />
        </mxCell>
        <mxCell id="j3UjTWgJ3GyvdFhE1y_W-7" value="&lt;font style=&quot;font-size: 21px;&quot;&gt;CE&lt;/font&gt;" style="text;html=1;strokeColor=none;fillColor=none;align=center;verticalAlign=middle;whiteSpace=wrap;rounded=0;" vertex="1" parent="j3UjTWgJ3GyvdFhE1y_W-1">
          <mxGeometry y="55" width="30" height="30" as="geometry" />
        </mxCell>
        <mxCell id="j3UjTWgJ3GyvdFhE1y_W-8" value="&lt;p style=&quot;line-height: 120%;&quot;&gt;&lt;br&gt;&lt;/p&gt;&lt;p style=&quot;line-height: 120%;&quot;&gt;&lt;br&gt;&lt;/p&gt;" style="shape=offPageConnector;whiteSpace=wrap;html=1;rotation=-90;" vertex="1" parent="1">
          <mxGeometry x="-990" y="70" width="30" height="30" as="geometry" />
        </mxCell>
        <mxCell id="j3UjTWgJ3GyvdFhE1y_W-9" value="&lt;p style=&quot;line-height: 120%;&quot;&gt;&lt;br&gt;&lt;/p&gt;&lt;p style=&quot;line-height: 120%;&quot;&gt;&lt;br&gt;&lt;/p&gt;" style="shape=offPageConnector;whiteSpace=wrap;html=1;rotation=-90;direction=west;" vertex="1" parent="1">
          <mxGeometry x="570" y="280" width="30" height="30" as="geometry" />
        </mxCell>
        <mxCell id="j3UjTWgJ3GyvdFhE1y_W-10" style="edgeStyle=orthogonalEdgeStyle;rounded=0;orthogonalLoop=1;jettySize=auto;html=1;exitX=1;exitY=0.5;exitDx=0;exitDy=0;exitPerimeter=0;entryX=0.5;entryY=0;entryDx=0;entryDy=0;endArrow=none;endFill=0;" edge="1" parent="1" source="j3UjTWgJ3GyvdFhE1y_W-11" target="j3UjTWgJ3GyvdFhE1y_W-6">
          <mxGeometry relative="1" as="geometry" />
        </mxCell>
        <mxCell id="j3UjTWgJ3GyvdFhE1y_W-11" value="" style="verticalLabelPosition=bottom;shadow=0;dashed=0;align=center;html=1;verticalAlign=top;shape=mxgraph.electrical.logic_gates.logic_gate;operation=or;" vertex="1" parent="1">
          <mxGeometry x="-300" y="70" width="100" height="60" as="geometry" />
        </mxCell>
        <mxCell id="j3UjTWgJ3GyvdFhE1y_W-13" style="edgeStyle=orthogonalEdgeStyle;rounded=0;orthogonalLoop=1;jettySize=auto;html=1;exitX=0.5;exitY=0;exitDx=0;exitDy=0;entryX=0;entryY=0.5;entryDx=0;entryDy=0;endArrow=none;endFill=0;" edge="1" parent="1" source="j3UjTWgJ3GyvdFhE1y_W-15" target="j3UjTWgJ3GyvdFhE1y_W-4">
          <mxGeometry relative="1" as="geometry" />
        </mxCell>
        <mxCell id="j3UjTWgJ3GyvdFhE1y_W-14" style="edgeStyle=orthogonalEdgeStyle;rounded=0;orthogonalLoop=1;jettySize=auto;html=1;exitX=0;exitY=0.5;exitDx=0;exitDy=0;endArrow=none;endFill=0;jumpStyle=sharp;" edge="1" parent="1" source="j3UjTWgJ3GyvdFhE1y_W-15">
          <mxGeometry relative="1" as="geometry">
            <mxPoint x="-320" y="310" as="targetPoint" />
            <Array as="points">
              <mxPoint x="-320" y="330" />
            </Array>
          </mxGeometry>
        </mxCell>
        <mxCell id="j3UjTWgJ3GyvdFhE1y_W-15" value="&lt;font style=&quot;font-size: 22px;&quot;&gt;+&lt;/font&gt;" style="ellipse;whiteSpace=wrap;html=1;aspect=fixed;" vertex="1" parent="1">
          <mxGeometry x="-200" y="290" width="80" height="80" as="geometry" />
        </mxCell>
        <mxCell id="j3UjTWgJ3GyvdFhE1y_W-64" style="edgeStyle=orthogonalEdgeStyle;rounded=0;orthogonalLoop=1;jettySize=auto;html=1;exitX=0.5;exitY=1;exitDx=0;exitDy=0;entryX=0;entryY=0.5;entryDx=0;entryDy=0;endArrow=none;endFill=0;" edge="1" parent="1" source="j3UjTWgJ3GyvdFhE1y_W-16" target="j3UjTWgJ3GyvdFhE1y_W-60">
          <mxGeometry relative="1" as="geometry" />
        </mxCell>
        <mxCell id="j3UjTWgJ3GyvdFhE1y_W-16" value="&lt;p style=&quot;line-height: 120%;&quot;&gt;&lt;br&gt;&lt;/p&gt;&lt;p style=&quot;line-height: 120%;&quot;&gt;&lt;br&gt;&lt;/p&gt;" style="shape=offPageConnector;whiteSpace=wrap;html=1;rotation=-90;" vertex="1" parent="1">
          <mxGeometry x="-1015" y="245" width="30" height="30" as="geometry" />
        </mxCell>
        <mxCell id="j3UjTWgJ3GyvdFhE1y_W-17" style="edgeStyle=orthogonalEdgeStyle;rounded=0;orthogonalLoop=1;jettySize=auto;html=1;exitX=0.5;exitY=1;exitDx=0;exitDy=0;entryX=0;entryY=0.25;entryDx=0;entryDy=0;entryPerimeter=0;endArrow=none;endFill=0;" edge="1" parent="1" source="j3UjTWgJ3GyvdFhE1y_W-8" target="j3UjTWgJ3GyvdFhE1y_W-11">
          <mxGeometry relative="1" as="geometry" />
        </mxCell>
        <mxCell id="j3UjTWgJ3GyvdFhE1y_W-20" value="" style="group" vertex="1" connectable="0" parent="1">
          <mxGeometry x="329" y="270" width="96" height="140" as="geometry" />
        </mxCell>
        <mxCell id="j3UjTWgJ3GyvdFhE1y_W-21" value="" style="rounded=0;whiteSpace=wrap;html=1;" vertex="1" parent="j3UjTWgJ3GyvdFhE1y_W-20">
          <mxGeometry width="96" height="140" as="geometry" />
        </mxCell>
        <mxCell id="j3UjTWgJ3GyvdFhE1y_W-22" value="" style="triangle;whiteSpace=wrap;html=1;rotation=0;" vertex="1" parent="j3UjTWgJ3GyvdFhE1y_W-20">
          <mxGeometry y="100" width="20" height="30" as="geometry" />
        </mxCell>
        <mxCell id="j3UjTWgJ3GyvdFhE1y_W-23" value="&lt;font style=&quot;font-size: 21px;&quot;&gt;D&lt;/font&gt;" style="text;html=1;strokeColor=none;fillColor=none;align=center;verticalAlign=middle;whiteSpace=wrap;rounded=0;" vertex="1" parent="j3UjTWgJ3GyvdFhE1y_W-20">
          <mxGeometry y="10" width="20" height="30" as="geometry" />
        </mxCell>
        <mxCell id="j3UjTWgJ3GyvdFhE1y_W-24" value="&lt;font style=&quot;font-size: 21px;&quot;&gt;Q&lt;/font&gt;" style="text;html=1;strokeColor=none;fillColor=none;align=center;verticalAlign=middle;whiteSpace=wrap;rounded=0;" vertex="1" parent="j3UjTWgJ3GyvdFhE1y_W-20">
          <mxGeometry x="76" y="10" width="20" height="30" as="geometry" />
        </mxCell>
        <mxCell id="j3UjTWgJ3GyvdFhE1y_W-25" value="&lt;font style=&quot;font-size: 21px;&quot;&gt;RST&lt;/font&gt;" style="text;html=1;strokeColor=none;fillColor=none;align=center;verticalAlign=middle;whiteSpace=wrap;rounded=0;" vertex="1" parent="j3UjTWgJ3GyvdFhE1y_W-20">
          <mxGeometry x="33" width="30" height="30" as="geometry" />
        </mxCell>
        <mxCell id="j3UjTWgJ3GyvdFhE1y_W-26" value="&lt;font style=&quot;font-size: 21px;&quot;&gt;CE&lt;/font&gt;" style="text;html=1;strokeColor=none;fillColor=none;align=center;verticalAlign=middle;whiteSpace=wrap;rounded=0;" vertex="1" parent="j3UjTWgJ3GyvdFhE1y_W-20">
          <mxGeometry y="55" width="30" height="30" as="geometry" />
        </mxCell>
        <mxCell id="j3UjTWgJ3GyvdFhE1y_W-27" style="edgeStyle=orthogonalEdgeStyle;rounded=0;orthogonalLoop=1;jettySize=auto;html=1;exitX=1;exitY=0.5;exitDx=0;exitDy=0;entryX=1;entryY=0.5;entryDx=0;entryDy=0;endArrow=none;endFill=0;" edge="1" parent="1" source="j3UjTWgJ3GyvdFhE1y_W-5" target="j3UjTWgJ3GyvdFhE1y_W-15">
          <mxGeometry relative="1" as="geometry">
            <Array as="points">
              <mxPoint x="110" y="145" />
              <mxPoint x="110" y="330" />
            </Array>
          </mxGeometry>
        </mxCell>
        <mxCell id="j3UjTWgJ3GyvdFhE1y_W-28" style="edgeStyle=orthogonalEdgeStyle;rounded=0;orthogonalLoop=1;jettySize=auto;html=1;exitX=0.5;exitY=1;exitDx=0;exitDy=0;entryX=0;entryY=0.5;entryDx=0;entryDy=0;jumpStyle=sharp;endArrow=none;endFill=0;" edge="1" parent="1" source="j3UjTWgJ3GyvdFhE1y_W-29" target="j3UjTWgJ3GyvdFhE1y_W-7">
          <mxGeometry relative="1" as="geometry">
            <Array as="points">
              <mxPoint x="-1120" y="200" />
              <mxPoint x="-1120" y="390" />
              <mxPoint x="-430" y="390" />
              <mxPoint x="-430" y="190" />
            </Array>
          </mxGeometry>
        </mxCell>
        <mxCell id="j3UjTWgJ3GyvdFhE1y_W-80" style="edgeStyle=orthogonalEdgeStyle;rounded=0;orthogonalLoop=1;jettySize=auto;html=1;exitX=0.5;exitY=1;exitDx=0;exitDy=0;entryX=0;entryY=0.5;entryDx=0;entryDy=0;endArrow=none;endFill=0;" edge="1" parent="1" source="j3UjTWgJ3GyvdFhE1y_W-29" target="j3UjTWgJ3GyvdFhE1y_W-63">
          <mxGeometry relative="1" as="geometry">
            <Array as="points">
              <mxPoint x="-1120" y="200" />
              <mxPoint x="-1120" y="305" />
            </Array>
          </mxGeometry>
        </mxCell>
        <mxCell id="j3UjTWgJ3GyvdFhE1y_W-29" value="&lt;p style=&quot;line-height: 120%;&quot;&gt;&lt;br&gt;&lt;/p&gt;&lt;p style=&quot;line-height: 120%;&quot;&gt;&lt;br&gt;&lt;/p&gt;" style="shape=offPageConnector;whiteSpace=wrap;html=1;rotation=-90;" vertex="1" parent="1">
          <mxGeometry x="-1235" y="185" width="30" height="30" as="geometry" />
        </mxCell>
        <mxCell id="j3UjTWgJ3GyvdFhE1y_W-30" style="edgeStyle=orthogonalEdgeStyle;rounded=0;orthogonalLoop=1;jettySize=auto;html=1;exitX=0.5;exitY=1;exitDx=0;exitDy=0;entryX=0;entryY=0.5;entryDx=0;entryDy=0;endArrow=none;endFill=0;jumpStyle=sharp;" edge="1" parent="1" source="j3UjTWgJ3GyvdFhE1y_W-32" target="j3UjTWgJ3GyvdFhE1y_W-3">
          <mxGeometry relative="1" as="geometry">
            <Array as="points">
              <mxPoint x="-1180" y="255" />
              <mxPoint x="-1180" y="430" />
              <mxPoint x="-390" y="430" />
              <mxPoint x="-390" y="235" />
            </Array>
          </mxGeometry>
        </mxCell>
        <mxCell id="j3UjTWgJ3GyvdFhE1y_W-31" style="edgeStyle=orthogonalEdgeStyle;rounded=0;orthogonalLoop=1;jettySize=auto;html=1;exitX=0.5;exitY=1;exitDx=0;exitDy=0;entryX=0;entryY=0.5;entryDx=0;entryDy=0;endArrow=none;endFill=0;" edge="1" parent="1" source="j3UjTWgJ3GyvdFhE1y_W-32" target="j3UjTWgJ3GyvdFhE1y_W-22">
          <mxGeometry relative="1" as="geometry">
            <Array as="points">
              <mxPoint x="-1180" y="255" />
              <mxPoint x="-1180" y="430" />
              <mxPoint x="240" y="430" />
              <mxPoint x="240" y="385" />
            </Array>
          </mxGeometry>
        </mxCell>
        <mxCell id="j3UjTWgJ3GyvdFhE1y_W-81" style="edgeStyle=orthogonalEdgeStyle;rounded=0;orthogonalLoop=1;jettySize=auto;html=1;exitX=0.5;exitY=1;exitDx=0;exitDy=0;entryX=0;entryY=0.5;entryDx=0;entryDy=0;endArrow=none;endFill=0;jumpStyle=sharp;" edge="1" parent="1" source="j3UjTWgJ3GyvdFhE1y_W-32" target="j3UjTWgJ3GyvdFhE1y_W-59">
          <mxGeometry relative="1" as="geometry">
            <Array as="points">
              <mxPoint x="-1180" y="255" />
              <mxPoint x="-1180" y="350" />
            </Array>
          </mxGeometry>
        </mxCell>
        <mxCell id="j3UjTWgJ3GyvdFhE1y_W-32" value="&lt;p style=&quot;line-height: 120%;&quot;&gt;&lt;br&gt;&lt;/p&gt;&lt;p style=&quot;line-height: 120%;&quot;&gt;&lt;br&gt;&lt;/p&gt;" style="shape=offPageConnector;whiteSpace=wrap;html=1;rotation=-90;" vertex="1" parent="1">
          <mxGeometry x="-1235" y="240" width="30" height="30" as="geometry" />
        </mxCell>
        <mxCell id="j3UjTWgJ3GyvdFhE1y_W-33" style="edgeStyle=orthogonalEdgeStyle;rounded=0;orthogonalLoop=1;jettySize=auto;html=1;exitX=0.5;exitY=0;exitDx=0;exitDy=0;entryX=0.5;entryY=0;entryDx=0;entryDy=0;endArrow=none;endFill=0;" edge="1" parent="1" source="j3UjTWgJ3GyvdFhE1y_W-6" target="j3UjTWgJ3GyvdFhE1y_W-25">
          <mxGeometry relative="1" as="geometry" />
        </mxCell>
        <mxCell id="j3UjTWgJ3GyvdFhE1y_W-34" style="edgeStyle=orthogonalEdgeStyle;rounded=0;orthogonalLoop=1;jettySize=auto;html=1;exitX=1;exitY=0.5;exitDx=0;exitDy=0;entryX=0;entryY=0.5;entryDx=0;entryDy=0;endArrow=none;endFill=0;" edge="1" parent="1" source="j3UjTWgJ3GyvdFhE1y_W-35" target="j3UjTWgJ3GyvdFhE1y_W-23">
          <mxGeometry relative="1" as="geometry" />
        </mxCell>
        <mxCell id="j3UjTWgJ3GyvdFhE1y_W-35" value="&lt;font style=&quot;font-size: 20px;&quot;&gt;Cos ROM&lt;/font&gt;" style="rounded=0;whiteSpace=wrap;html=1;" vertex="1" parent="1">
          <mxGeometry x="150" y="265" width="120" height="60" as="geometry" />
        </mxCell>
        <mxCell id="j3UjTWgJ3GyvdFhE1y_W-36" style="edgeStyle=orthogonalEdgeStyle;rounded=0;orthogonalLoop=1;jettySize=auto;html=1;exitX=1;exitY=0.5;exitDx=0;exitDy=0;entryX=0;entryY=0.5;entryDx=0;entryDy=0;endArrow=none;endFill=0;" edge="1" parent="1" source="j3UjTWgJ3GyvdFhE1y_W-5" target="j3UjTWgJ3GyvdFhE1y_W-35">
          <mxGeometry relative="1" as="geometry">
            <Array as="points">
              <mxPoint x="110" y="145" />
              <mxPoint x="110" y="295" />
            </Array>
          </mxGeometry>
        </mxCell>
        <mxCell id="j3UjTWgJ3GyvdFhE1y_W-37" value="" style="edgeStyle=none;orthogonalLoop=1;jettySize=auto;html=1;rounded=0;endArrow=none;endFill=0;" edge="1" parent="1">
          <mxGeometry width="100" relative="1" as="geometry">
            <mxPoint x="-350" y="310" as="sourcePoint" />
            <mxPoint x="-290" y="310" as="targetPoint" />
            <Array as="points" />
          </mxGeometry>
        </mxCell>
        <mxCell id="j3UjTWgJ3GyvdFhE1y_W-38" value="&lt;font style=&quot;font-size: 22px;&quot;&gt;&#39;1&#39;&lt;/font&gt;" style="text;html=1;align=center;verticalAlign=middle;resizable=0;points=[];autosize=1;strokeColor=none;fillColor=none;" vertex="1" parent="1">
          <mxGeometry x="-340" y="275" width="40" height="40" as="geometry" />
        </mxCell>
        <mxCell id="j3UjTWgJ3GyvdFhE1y_W-39" style="edgeStyle=orthogonalEdgeStyle;rounded=0;orthogonalLoop=1;jettySize=auto;html=1;exitX=0;exitY=0.5;exitDx=0;exitDy=0;entryX=0.5;entryY=1;entryDx=0;entryDy=0;endArrow=none;endFill=0;jumpStyle=sharp;" edge="1" parent="1" source="j3UjTWgJ3GyvdFhE1y_W-26" target="j3UjTWgJ3GyvdFhE1y_W-29">
          <mxGeometry relative="1" as="geometry">
            <Array as="points">
              <mxPoint x="140" y="340" />
              <mxPoint x="140" y="390" />
              <mxPoint x="-1120" y="390" />
              <mxPoint x="-1120" y="200" />
            </Array>
          </mxGeometry>
        </mxCell>
        <mxCell id="j3UjTWgJ3GyvdFhE1y_W-40" style="edgeStyle=orthogonalEdgeStyle;rounded=0;orthogonalLoop=1;jettySize=auto;html=1;exitX=1;exitY=0.5;exitDx=0;exitDy=0;entryX=0.5;entryY=1;entryDx=0;entryDy=0;endArrow=none;endFill=0;" edge="1" parent="1" source="j3UjTWgJ3GyvdFhE1y_W-24" target="j3UjTWgJ3GyvdFhE1y_W-9">
          <mxGeometry relative="1" as="geometry" />
        </mxCell>
        <mxCell id="j3UjTWgJ3GyvdFhE1y_W-41" value="&lt;font style=&quot;font-size: 22px;&quot;&gt;o_sin&lt;/font&gt;" style="text;html=1;align=center;verticalAlign=middle;resizable=0;points=[];autosize=1;strokeColor=none;fillColor=none;" vertex="1" parent="1">
          <mxGeometry x="600" y="275" width="80" height="40" as="geometry" />
        </mxCell>
        <mxCell id="j3UjTWgJ3GyvdFhE1y_W-42" value="&lt;font style=&quot;font-size: 22px;&quot;&gt;RESET_G&lt;/font&gt;" style="text;html=1;align=center;verticalAlign=middle;resizable=0;points=[];autosize=1;strokeColor=none;fillColor=none;" vertex="1" parent="1">
          <mxGeometry x="-1120" y="65" width="130" height="40" as="geometry" />
        </mxCell>
        <mxCell id="j3UjTWgJ3GyvdFhE1y_W-43" value="&lt;font style=&quot;font-size: 22px;&quot;&gt;i_mode&lt;/font&gt;" style="text;html=1;align=center;verticalAlign=middle;resizable=0;points=[];autosize=1;strokeColor=none;fillColor=none;" vertex="1" parent="1">
          <mxGeometry x="-1110" y="240" width="100" height="40" as="geometry" />
        </mxCell>
        <mxCell id="j3UjTWgJ3GyvdFhE1y_W-44" value="&lt;font style=&quot;font-size: 22px;&quot;&gt;i_clk&lt;/font&gt;" style="text;html=1;align=center;verticalAlign=middle;resizable=0;points=[];autosize=1;strokeColor=none;fillColor=none;" vertex="1" parent="1">
          <mxGeometry x="-1305" y="235" width="70" height="40" as="geometry" />
        </mxCell>
        <mxCell id="j3UjTWgJ3GyvdFhE1y_W-45" value="&lt;font style=&quot;font-size: 22px;&quot;&gt;i_cen&lt;/font&gt;" style="text;html=1;align=center;verticalAlign=middle;resizable=0;points=[];autosize=1;strokeColor=none;fillColor=none;" vertex="1" parent="1">
          <mxGeometry x="-1310" y="180" width="80" height="40" as="geometry" />
        </mxCell>
        <mxCell id="j3UjTWgJ3GyvdFhE1y_W-46" value="" style="endArrow=none;html=1;rounded=0;" edge="1" parent="1">
          <mxGeometry width="50" height="50" relative="1" as="geometry">
            <mxPoint x="90" y="300" as="sourcePoint" />
            <mxPoint x="130" y="270" as="targetPoint" />
          </mxGeometry>
        </mxCell>
        <mxCell id="j3UjTWgJ3GyvdFhE1y_W-47" value="&lt;font style=&quot;font-size: 18px;&quot;&gt;4&lt;/font&gt;" style="text;html=1;align=center;verticalAlign=middle;resizable=0;points=[];autosize=1;strokeColor=none;fillColor=none;" vertex="1" parent="1">
          <mxGeometry x="110" y="240" width="30" height="40" as="geometry" />
        </mxCell>
        <mxCell id="j3UjTWgJ3GyvdFhE1y_W-48" value="&lt;font style=&quot;font-size: 18px;&quot;&gt;4&lt;/font&gt;" style="text;html=1;align=center;verticalAlign=middle;resizable=0;points=[];autosize=1;strokeColor=none;fillColor=none;" vertex="1" parent="1">
          <mxGeometry x="-190" y="250" width="30" height="40" as="geometry" />
        </mxCell>
        <mxCell id="j3UjTWgJ3GyvdFhE1y_W-49" value="" style="endArrow=none;html=1;rounded=0;" edge="1" parent="1">
          <mxGeometry width="50" height="50" relative="1" as="geometry">
            <mxPoint x="-180" y="290" as="sourcePoint" />
            <mxPoint x="-140" y="260" as="targetPoint" />
          </mxGeometry>
        </mxCell>
        <mxCell id="j3UjTWgJ3GyvdFhE1y_W-50" value="" style="endArrow=none;html=1;rounded=0;" edge="1" parent="1">
          <mxGeometry width="50" height="50" relative="1" as="geometry">
            <mxPoint x="280" y="310" as="sourcePoint" />
            <mxPoint x="320" y="280" as="targetPoint" />
          </mxGeometry>
        </mxCell>
        <mxCell id="j3UjTWgJ3GyvdFhE1y_W-51" value="" style="endArrow=none;html=1;rounded=0;" edge="1" parent="1">
          <mxGeometry width="50" height="50" relative="1" as="geometry">
            <mxPoint x="480" y="305" as="sourcePoint" />
            <mxPoint x="520" y="275" as="targetPoint" />
          </mxGeometry>
        </mxCell>
        <mxCell id="j3UjTWgJ3GyvdFhE1y_W-52" value="&lt;font style=&quot;font-size: 18px;&quot;&gt;8&lt;/font&gt;" style="text;html=1;align=center;verticalAlign=middle;resizable=0;points=[];autosize=1;strokeColor=none;fillColor=none;" vertex="1" parent="1">
          <mxGeometry x="280" y="260" width="30" height="40" as="geometry" />
        </mxCell>
        <mxCell id="j3UjTWgJ3GyvdFhE1y_W-53" value="&lt;font style=&quot;font-size: 18px;&quot;&gt;8&lt;/font&gt;" style="text;html=1;align=center;verticalAlign=middle;resizable=0;points=[];autosize=1;strokeColor=none;fillColor=none;" vertex="1" parent="1">
          <mxGeometry x="470" y="260" width="30" height="40" as="geometry" />
        </mxCell>
        <mxCell id="j3UjTWgJ3GyvdFhE1y_W-57" value="" style="group" vertex="1" connectable="0" parent="1">
          <mxGeometry x="-910" y="235" width="96" height="140" as="geometry" />
        </mxCell>
        <mxCell id="j3UjTWgJ3GyvdFhE1y_W-58" value="" style="rounded=0;whiteSpace=wrap;html=1;" vertex="1" parent="j3UjTWgJ3GyvdFhE1y_W-57">
          <mxGeometry width="96" height="140" as="geometry" />
        </mxCell>
        <mxCell id="j3UjTWgJ3GyvdFhE1y_W-59" value="" style="triangle;whiteSpace=wrap;html=1;rotation=0;" vertex="1" parent="j3UjTWgJ3GyvdFhE1y_W-57">
          <mxGeometry y="100" width="20" height="30" as="geometry" />
        </mxCell>
        <mxCell id="j3UjTWgJ3GyvdFhE1y_W-60" value="&lt;font style=&quot;font-size: 21px;&quot;&gt;D&lt;/font&gt;" style="text;html=1;strokeColor=none;fillColor=none;align=center;verticalAlign=middle;whiteSpace=wrap;rounded=0;" vertex="1" parent="j3UjTWgJ3GyvdFhE1y_W-57">
          <mxGeometry y="10" width="20" height="30" as="geometry" />
        </mxCell>
        <mxCell id="j3UjTWgJ3GyvdFhE1y_W-61" value="&lt;font style=&quot;font-size: 21px;&quot;&gt;Q&lt;/font&gt;" style="text;html=1;strokeColor=none;fillColor=none;align=center;verticalAlign=middle;whiteSpace=wrap;rounded=0;" vertex="1" parent="j3UjTWgJ3GyvdFhE1y_W-57">
          <mxGeometry x="76" y="10" width="20" height="30" as="geometry" />
        </mxCell>
        <mxCell id="j3UjTWgJ3GyvdFhE1y_W-62" value="&lt;font style=&quot;font-size: 21px;&quot;&gt;RST&lt;/font&gt;" style="text;html=1;strokeColor=none;fillColor=none;align=center;verticalAlign=middle;whiteSpace=wrap;rounded=0;" vertex="1" parent="j3UjTWgJ3GyvdFhE1y_W-57">
          <mxGeometry x="33" width="30" height="30" as="geometry" />
        </mxCell>
        <mxCell id="j3UjTWgJ3GyvdFhE1y_W-63" value="&lt;font style=&quot;font-size: 21px;&quot;&gt;CE&lt;/font&gt;" style="text;html=1;strokeColor=none;fillColor=none;align=center;verticalAlign=middle;whiteSpace=wrap;rounded=0;" vertex="1" parent="j3UjTWgJ3GyvdFhE1y_W-57">
          <mxGeometry y="55" width="30" height="30" as="geometry" />
        </mxCell>
        <mxCell id="j3UjTWgJ3GyvdFhE1y_W-65" value="&lt;font style=&quot;font-size: 18px;&quot;&gt;2&lt;/font&gt;" style="text;html=1;align=center;verticalAlign=middle;resizable=0;points=[];autosize=1;strokeColor=none;fillColor=none;" vertex="1" parent="1">
          <mxGeometry x="-980" y="225" width="30" height="40" as="geometry" />
        </mxCell>
        <mxCell id="j3UjTWgJ3GyvdFhE1y_W-66" value="" style="endArrow=none;html=1;rounded=0;" edge="1" parent="1">
          <mxGeometry width="50" height="50" relative="1" as="geometry">
            <mxPoint x="-980" y="275" as="sourcePoint" />
            <mxPoint x="-940" y="245" as="targetPoint" />
          </mxGeometry>
        </mxCell>
        <mxCell id="j3UjTWgJ3GyvdFhE1y_W-83" style="edgeStyle=orthogonalEdgeStyle;rounded=0;orthogonalLoop=1;jettySize=auto;html=1;exitX=0;exitY=0.25;exitDx=0;exitDy=0;exitPerimeter=0;entryX=0.5;entryY=1;entryDx=0;entryDy=0;endArrow=none;endFill=0;" edge="1" parent="1" source="j3UjTWgJ3GyvdFhE1y_W-68" target="j3UjTWgJ3GyvdFhE1y_W-16">
          <mxGeometry relative="1" as="geometry">
            <Array as="points">
              <mxPoint x="-930" y="150" />
              <mxPoint x="-930" y="260" />
            </Array>
          </mxGeometry>
        </mxCell>
        <mxCell id="j3UjTWgJ3GyvdFhE1y_W-68" value="" style="verticalLabelPosition=bottom;shadow=0;dashed=0;align=center;html=1;verticalAlign=top;shape=mxgraph.electrical.logic_gates.logic_gate;operation=xor;" vertex="1" parent="1">
          <mxGeometry x="-730" y="135" width="100" height="60" as="geometry" />
        </mxCell>
        <mxCell id="j3UjTWgJ3GyvdFhE1y_W-82" style="edgeStyle=orthogonalEdgeStyle;rounded=0;orthogonalLoop=1;jettySize=auto;html=1;exitX=0;exitY=0.25;exitDx=0;exitDy=0;exitPerimeter=0;entryX=0.5;entryY=1;entryDx=0;entryDy=0;endArrow=none;endFill=0;" edge="1" parent="1" source="j3UjTWgJ3GyvdFhE1y_W-69" target="j3UjTWgJ3GyvdFhE1y_W-16">
          <mxGeometry relative="1" as="geometry">
            <Array as="points">
              <mxPoint x="-930" y="225" />
              <mxPoint x="-930" y="260" />
            </Array>
          </mxGeometry>
        </mxCell>
        <mxCell id="j3UjTWgJ3GyvdFhE1y_W-69" value="" style="verticalLabelPosition=bottom;shadow=0;dashed=0;align=center;html=1;verticalAlign=top;shape=mxgraph.electrical.logic_gates.logic_gate;operation=xor;" vertex="1" parent="1">
          <mxGeometry x="-730" y="210" width="100" height="60" as="geometry" />
        </mxCell>
        <mxCell id="j3UjTWgJ3GyvdFhE1y_W-70" value="" style="verticalLabelPosition=bottom;shadow=0;dashed=0;align=center;html=1;verticalAlign=top;shape=mxgraph.electrical.logic_gates.logic_gate;operation=and;" vertex="1" parent="1">
          <mxGeometry x="-490" y="120" width="100" height="60" as="geometry" />
        </mxCell>
        <mxCell id="j3UjTWgJ3GyvdFhE1y_W-71" style="edgeStyle=orthogonalEdgeStyle;rounded=0;orthogonalLoop=1;jettySize=auto;html=1;exitX=1;exitY=0.5;exitDx=0;exitDy=0;exitPerimeter=0;entryX=0;entryY=0.75;entryDx=0;entryDy=0;entryPerimeter=0;endArrow=none;endFill=0;" edge="1" parent="1" source="j3UjTWgJ3GyvdFhE1y_W-70" target="j3UjTWgJ3GyvdFhE1y_W-11">
          <mxGeometry relative="1" as="geometry" />
        </mxCell>
        <mxCell id="j3UjTWgJ3GyvdFhE1y_W-72" style="edgeStyle=orthogonalEdgeStyle;rounded=0;orthogonalLoop=1;jettySize=auto;html=1;exitX=0;exitY=0.25;exitDx=0;exitDy=0;exitPerimeter=0;entryX=1;entryY=0.5;entryDx=0;entryDy=0;entryPerimeter=0;endArrow=none;endFill=0;" edge="1" parent="1" source="j3UjTWgJ3GyvdFhE1y_W-70" target="j3UjTWgJ3GyvdFhE1y_W-68">
          <mxGeometry relative="1" as="geometry" />
        </mxCell>
        <mxCell id="j3UjTWgJ3GyvdFhE1y_W-73" style="edgeStyle=orthogonalEdgeStyle;rounded=0;orthogonalLoop=1;jettySize=auto;html=1;exitX=0;exitY=0.75;exitDx=0;exitDy=0;exitPerimeter=0;entryX=1;entryY=0.5;entryDx=0;entryDy=0;entryPerimeter=0;endArrow=none;endFill=0;" edge="1" parent="1" source="j3UjTWgJ3GyvdFhE1y_W-70" target="j3UjTWgJ3GyvdFhE1y_W-69">
          <mxGeometry relative="1" as="geometry">
            <Array as="points">
              <mxPoint x="-520" y="165" />
              <mxPoint x="-520" y="240" />
            </Array>
          </mxGeometry>
        </mxCell>
        <mxCell id="j3UjTWgJ3GyvdFhE1y_W-79" style="edgeStyle=orthogonalEdgeStyle;rounded=0;orthogonalLoop=1;jettySize=auto;html=1;exitX=0.5;exitY=0;exitDx=0;exitDy=0;entryX=0.5;entryY=1;entryDx=0;entryDy=0;endArrow=none;endFill=0;jumpStyle=sharp;" edge="1" parent="1" source="j3UjTWgJ3GyvdFhE1y_W-62" target="j3UjTWgJ3GyvdFhE1y_W-8">
          <mxGeometry relative="1" as="geometry" />
        </mxCell>
        <mxCell id="j3UjTWgJ3GyvdFhE1y_W-84" value="" style="endArrow=none;html=1;rounded=0;" edge="1" parent="1">
          <mxGeometry width="50" height="50" relative="1" as="geometry">
            <mxPoint x="-790" y="165" as="sourcePoint" />
            <mxPoint x="-750" y="135" as="targetPoint" />
          </mxGeometry>
        </mxCell>
        <mxCell id="j3UjTWgJ3GyvdFhE1y_W-85" value="" style="endArrow=none;html=1;rounded=0;" edge="1" parent="1">
          <mxGeometry width="50" height="50" relative="1" as="geometry">
            <mxPoint x="-790" y="235" as="sourcePoint" />
            <mxPoint x="-750" y="205" as="targetPoint" />
          </mxGeometry>
        </mxCell>
        <mxCell id="j3UjTWgJ3GyvdFhE1y_W-86" value="&lt;font style=&quot;font-size: 18px;&quot;&gt;1&lt;/font&gt;" style="text;html=1;align=center;verticalAlign=middle;resizable=0;points=[];autosize=1;strokeColor=none;fillColor=none;" vertex="1" parent="1">
          <mxGeometry x="-790" y="195" width="30" height="40" as="geometry" />
        </mxCell>
        <mxCell id="j3UjTWgJ3GyvdFhE1y_W-89" value="&lt;font style=&quot;font-size: 18px;&quot;&gt;1&lt;/font&gt;" style="text;html=1;align=center;verticalAlign=middle;resizable=0;points=[];autosize=1;strokeColor=none;fillColor=none;" vertex="1" parent="1">
          <mxGeometry x="-790" y="120" width="30" height="40" as="geometry" />
        </mxCell>
        <mxCell id="j3UjTWgJ3GyvdFhE1y_W-90" style="edgeStyle=orthogonalEdgeStyle;rounded=0;orthogonalLoop=1;jettySize=auto;html=1;exitX=1;exitY=0.5;exitDx=0;exitDy=0;entryX=0;entryY=0.75;entryDx=0;entryDy=0;entryPerimeter=0;endArrow=none;endFill=0;" edge="1" parent="1" source="j3UjTWgJ3GyvdFhE1y_W-61" target="j3UjTWgJ3GyvdFhE1y_W-69">
          <mxGeometry relative="1" as="geometry" />
        </mxCell>
        <mxCell id="j3UjTWgJ3GyvdFhE1y_W-91" style="edgeStyle=orthogonalEdgeStyle;rounded=0;orthogonalLoop=1;jettySize=auto;html=1;exitX=1;exitY=0.5;exitDx=0;exitDy=0;entryX=0;entryY=0.75;entryDx=0;entryDy=0;entryPerimeter=0;jumpStyle=sharp;endArrow=none;endFill=0;" edge="1" parent="1" source="j3UjTWgJ3GyvdFhE1y_W-61" target="j3UjTWgJ3GyvdFhE1y_W-68">
          <mxGeometry relative="1" as="geometry">
            <Array as="points">
              <mxPoint x="-800" y="260" />
              <mxPoint x="-800" y="180" />
            </Array>
          </mxGeometry>
        </mxCell>
        <mxCell id="j3UjTWgJ3GyvdFhE1y_W-92" value="&lt;font style=&quot;font-size: 18px;&quot;&gt;1&lt;/font&gt;" style="text;html=1;align=center;verticalAlign=middle;resizable=0;points=[];autosize=1;strokeColor=none;fillColor=none;" vertex="1" parent="1">
          <mxGeometry x="-790" y="170" width="30" height="40" as="geometry" />
        </mxCell>
        <mxCell id="j3UjTWgJ3GyvdFhE1y_W-93" value="" style="endArrow=none;html=1;rounded=0;" edge="1" parent="1">
          <mxGeometry width="50" height="50" relative="1" as="geometry">
            <mxPoint x="-780" y="270" as="sourcePoint" />
            <mxPoint x="-740" y="240" as="targetPoint" />
          </mxGeometry>
        </mxCell>
        <mxCell id="j3UjTWgJ3GyvdFhE1y_W-94" value="&lt;font style=&quot;font-size: 18px;&quot;&gt;1&lt;/font&gt;" style="text;html=1;align=center;verticalAlign=middle;resizable=0;points=[];autosize=1;strokeColor=none;fillColor=none;" vertex="1" parent="1">
          <mxGeometry x="-770" y="250" width="30" height="40" as="geometry" />
        </mxCell>
        <mxCell id="j3UjTWgJ3GyvdFhE1y_W-96" value="" style="endArrow=none;html=1;rounded=0;" edge="1" parent="1">
          <mxGeometry width="50" height="50" relative="1" as="geometry">
            <mxPoint x="-795" y="195" as="sourcePoint" />
            <mxPoint x="-755" y="165" as="targetPoint" />
          </mxGeometry>
        </mxCell>
      </root>
    </mxGraphModel>
  </diagram>
  <diagram id="B5Lkf1UOlehjODpxGuQv" name="Contrat d&#39;interface">
    <mxGraphModel dx="1221" dy="641" grid="0" gridSize="10" guides="1" tooltips="1" connect="1" arrows="1" fold="1" page="0" pageScale="1" pageWidth="850" pageHeight="1100" math="0" shadow="0">
      <root>
        <mxCell id="0" />
        <mxCell id="1" parent="0" />
        <mxCell id="sKOC-nxmKNlvyWyzkV-N-1" value="&lt;font style=&quot;font-size: 19px;&quot;&gt;DUT&lt;/font&gt;" style="rounded=0;whiteSpace=wrap;html=1;" vertex="1" parent="1">
          <mxGeometry x="149" y="69" width="260" height="299" as="geometry" />
        </mxCell>
        <mxCell id="sKOC-nxmKNlvyWyzkV-N-2" value="&lt;font style=&quot;font-size: 17px;&quot;&gt;RESET_G&lt;/font&gt;" style="text;html=1;align=center;verticalAlign=middle;resizable=0;points=[];autosize=1;strokeColor=none;fillColor=none;" vertex="1" parent="1">
          <mxGeometry x="149" y="82" width="97" height="32" as="geometry" />
        </mxCell>
        <mxCell id="sKOC-nxmKNlvyWyzkV-N-3" value="&lt;font style=&quot;font-size: 17px;&quot;&gt;BUS_SORTIE [15:0]&lt;/font&gt;" style="text;html=1;align=center;verticalAlign=middle;resizable=0;points=[];autosize=1;strokeColor=none;fillColor=none;" vertex="1" parent="1">
          <mxGeometry x="236" y="140" width="173" height="32" as="geometry" />
        </mxCell>
        <mxCell id="sKOC-nxmKNlvyWyzkV-N-4" value="&lt;font style=&quot;font-size: 17px;&quot;&gt;i_clk&lt;/font&gt;" style="text;html=1;align=center;verticalAlign=middle;resizable=0;points=[];autosize=1;strokeColor=none;fillColor=none;" vertex="1" parent="1">
          <mxGeometry x="149" y="140" width="52" height="32" as="geometry" />
        </mxCell>
        <mxCell id="sKOC-nxmKNlvyWyzkV-N-5" value="&lt;font style=&quot;font-size: 17px;&quot;&gt;i_rst&lt;/font&gt;" style="text;html=1;align=center;verticalAlign=middle;resizable=0;points=[];autosize=1;strokeColor=none;fillColor=none;" vertex="1" parent="1">
          <mxGeometry x="149" y="216" width="50" height="32" as="geometry" />
        </mxCell>
        <mxCell id="sKOC-nxmKNlvyWyzkV-N-6" value="&lt;font style=&quot;font-size: 17px;&quot;&gt;i_switch[1:0]&lt;/font&gt;" style="text;html=1;align=center;verticalAlign=middle;resizable=0;points=[];autosize=1;strokeColor=none;fillColor=none;" vertex="1" parent="1">
          <mxGeometry x="149" y="300" width="112" height="32" as="geometry" />
        </mxCell>
      </root>
    </mxGraphModel>
  </diagram>
  <diagram id="QUNH_e4ZLA7OyWS8T9TG" name="RTL_Top">
    <mxGraphModel dx="1221" dy="641" grid="0" gridSize="10" guides="1" tooltips="1" connect="1" arrows="1" fold="1" page="0" pageScale="1" pageWidth="850" pageHeight="1100" math="0" shadow="0">
      <root>
        <mxCell id="0" />
        <mxCell id="1" parent="0" />
        <mxCell id="MAPnOyh545ctayzjEm2_-1" value="&lt;font style=&quot;font-size: 19px;&quot;&gt;DUT&lt;/font&gt;" style="rounded=0;whiteSpace=wrap;html=1;" vertex="1" parent="1">
          <mxGeometry x="149" y="69" width="260" height="299" as="geometry" />
        </mxCell>
        <mxCell id="MAPnOyh545ctayzjEm2_-2" value="&lt;font style=&quot;font-size: 17px;&quot;&gt;RESET_G&lt;/font&gt;" style="text;html=1;align=center;verticalAlign=middle;resizable=0;points=[];autosize=1;strokeColor=none;fillColor=none;" vertex="1" parent="1">
          <mxGeometry x="149" y="82" width="97" height="32" as="geometry" />
        </mxCell>
        <mxCell id="MAPnOyh545ctayzjEm2_-3" value="&lt;font style=&quot;font-size: 17px;&quot;&gt;BUS_SORTIE [15:0]&lt;/font&gt;" style="text;html=1;align=center;verticalAlign=middle;resizable=0;points=[];autosize=1;strokeColor=none;fillColor=none;" vertex="1" parent="1">
          <mxGeometry x="236" y="140" width="173" height="32" as="geometry" />
        </mxCell>
        <mxCell id="MAPnOyh545ctayzjEm2_-4" value="&lt;font style=&quot;font-size: 17px;&quot;&gt;i_clk&lt;/font&gt;" style="text;html=1;align=center;verticalAlign=middle;resizable=0;points=[];autosize=1;strokeColor=none;fillColor=none;" vertex="1" parent="1">
          <mxGeometry x="149" y="140" width="52" height="32" as="geometry" />
        </mxCell>
        <mxCell id="MAPnOyh545ctayzjEm2_-5" value="&lt;font style=&quot;font-size: 17px;&quot;&gt;i_rst&lt;/font&gt;" style="text;html=1;align=center;verticalAlign=middle;resizable=0;points=[];autosize=1;strokeColor=none;fillColor=none;" vertex="1" parent="1">
          <mxGeometry x="149" y="216" width="50" height="32" as="geometry" />
        </mxCell>
        <mxCell id="MAPnOyh545ctayzjEm2_-6" value="&lt;font style=&quot;font-size: 17px;&quot;&gt;i_switch[1:0]&lt;/font&gt;" style="text;html=1;align=center;verticalAlign=middle;resizable=0;points=[];autosize=1;strokeColor=none;fillColor=none;" vertex="1" parent="1">
          <mxGeometry x="149" y="300" width="112" height="32" as="geometry" />
        </mxCell>
      </root>
    </mxGraphModel>
  </diagram>
  <diagram id="BkkxihUg67LE_BixZr6F" name="RTL_Mux">
    <mxGraphModel dx="2671" dy="983" grid="1" gridSize="10" guides="1" tooltips="1" connect="1" arrows="1" fold="1" page="0" pageScale="1" pageWidth="850" pageHeight="1100" math="0" shadow="0">
      <root>
        <mxCell id="0" />
        <mxCell id="1" parent="0" />
        <mxCell id="FK7bqsTQZ36S5xG28qA8-1" value="" style="group" vertex="1" connectable="0" parent="1">
          <mxGeometry x="325" y="-10" width="96" height="140" as="geometry" />
        </mxCell>
        <mxCell id="FK7bqsTQZ36S5xG28qA8-2" value="" style="rounded=0;whiteSpace=wrap;html=1;" vertex="1" parent="FK7bqsTQZ36S5xG28qA8-1">
          <mxGeometry width="96" height="140" as="geometry" />
        </mxCell>
        <mxCell id="FK7bqsTQZ36S5xG28qA8-3" value="" style="triangle;whiteSpace=wrap;html=1;rotation=0;" vertex="1" parent="FK7bqsTQZ36S5xG28qA8-1">
          <mxGeometry y="100" width="20" height="30" as="geometry" />
        </mxCell>
        <mxCell id="FK7bqsTQZ36S5xG28qA8-4" value="&lt;font style=&quot;font-size: 21px;&quot;&gt;D&lt;/font&gt;" style="text;html=1;strokeColor=none;fillColor=none;align=center;verticalAlign=middle;whiteSpace=wrap;rounded=0;" vertex="1" parent="FK7bqsTQZ36S5xG28qA8-1">
          <mxGeometry y="10" width="20" height="30" as="geometry" />
        </mxCell>
        <mxCell id="FK7bqsTQZ36S5xG28qA8-5" value="&lt;font style=&quot;font-size: 21px;&quot;&gt;Q&lt;/font&gt;" style="text;html=1;strokeColor=none;fillColor=none;align=center;verticalAlign=middle;whiteSpace=wrap;rounded=0;" vertex="1" parent="FK7bqsTQZ36S5xG28qA8-1">
          <mxGeometry x="76" y="10" width="20" height="30" as="geometry" />
        </mxCell>
        <mxCell id="FK7bqsTQZ36S5xG28qA8-6" value="&lt;font style=&quot;font-size: 21px;&quot;&gt;RST&lt;/font&gt;" style="text;html=1;strokeColor=none;fillColor=none;align=center;verticalAlign=middle;whiteSpace=wrap;rounded=0;" vertex="1" parent="FK7bqsTQZ36S5xG28qA8-1">
          <mxGeometry x="33" width="30" height="30" as="geometry" />
        </mxCell>
        <mxCell id="FK7bqsTQZ36S5xG28qA8-7" value="&lt;font style=&quot;font-size: 21px;&quot;&gt;CE&lt;/font&gt;" style="text;html=1;strokeColor=none;fillColor=none;align=center;verticalAlign=middle;whiteSpace=wrap;rounded=0;" vertex="1" parent="FK7bqsTQZ36S5xG28qA8-1">
          <mxGeometry y="55" width="30" height="30" as="geometry" />
        </mxCell>
        <mxCell id="FK7bqsTQZ36S5xG28qA8-8" value="&lt;p style=&quot;line-height: 120%;&quot;&gt;&lt;br&gt;&lt;/p&gt;&lt;p style=&quot;line-height: 120%;&quot;&gt;&lt;br&gt;&lt;/p&gt;" style="shape=offPageConnector;whiteSpace=wrap;html=1;rotation=-90;" vertex="1" parent="1">
          <mxGeometry x="-994" y="-244" width="30" height="30" as="geometry" />
        </mxCell>
        <mxCell id="FK7bqsTQZ36S5xG28qA8-9" value="&lt;p style=&quot;line-height: 120%;&quot;&gt;&lt;br&gt;&lt;/p&gt;&lt;p style=&quot;line-height: 120%;&quot;&gt;&lt;br&gt;&lt;/p&gt;" style="shape=offPageConnector;whiteSpace=wrap;html=1;rotation=-90;direction=west;" vertex="1" parent="1">
          <mxGeometry x="584" y="258" width="30" height="30" as="geometry" />
        </mxCell>
        <mxCell id="FK7bqsTQZ36S5xG28qA8-111" style="edgeStyle=orthogonalEdgeStyle;rounded=0;orthogonalLoop=1;jettySize=auto;html=1;exitX=0.5;exitY=1;exitDx=0;exitDy=0;entryX=0;entryY=0.5;entryDx=0;entryDy=0;" edge="1" parent="1" source="FK7bqsTQZ36S5xG28qA8-16" target="FK7bqsTQZ36S5xG28qA8-105">
          <mxGeometry relative="1" as="geometry" />
        </mxCell>
        <mxCell id="FK7bqsTQZ36S5xG28qA8-16" value="&lt;p style=&quot;line-height: 120%;&quot;&gt;&lt;br&gt;&lt;/p&gt;&lt;p style=&quot;line-height: 120%;&quot;&gt;&lt;br&gt;&lt;/p&gt;" style="shape=offPageConnector;whiteSpace=wrap;html=1;rotation=-90;" vertex="1" parent="1">
          <mxGeometry x="-1260" y="20" width="30" height="30" as="geometry" />
        </mxCell>
        <mxCell id="FK7bqsTQZ36S5xG28qA8-18" value="" style="group" vertex="1" connectable="0" parent="1">
          <mxGeometry x="325" y="248" width="96" height="140" as="geometry" />
        </mxCell>
        <mxCell id="FK7bqsTQZ36S5xG28qA8-19" value="" style="rounded=0;whiteSpace=wrap;html=1;" vertex="1" parent="FK7bqsTQZ36S5xG28qA8-18">
          <mxGeometry width="96" height="140" as="geometry" />
        </mxCell>
        <mxCell id="FK7bqsTQZ36S5xG28qA8-20" value="" style="triangle;whiteSpace=wrap;html=1;rotation=0;" vertex="1" parent="FK7bqsTQZ36S5xG28qA8-18">
          <mxGeometry y="100" width="20" height="30" as="geometry" />
        </mxCell>
        <mxCell id="FK7bqsTQZ36S5xG28qA8-21" value="&lt;font style=&quot;font-size: 21px;&quot;&gt;D&lt;/font&gt;" style="text;html=1;strokeColor=none;fillColor=none;align=center;verticalAlign=middle;whiteSpace=wrap;rounded=0;" vertex="1" parent="FK7bqsTQZ36S5xG28qA8-18">
          <mxGeometry y="10" width="20" height="30" as="geometry" />
        </mxCell>
        <mxCell id="FK7bqsTQZ36S5xG28qA8-22" value="&lt;font style=&quot;font-size: 21px;&quot;&gt;Q&lt;/font&gt;" style="text;html=1;strokeColor=none;fillColor=none;align=center;verticalAlign=middle;whiteSpace=wrap;rounded=0;" vertex="1" parent="FK7bqsTQZ36S5xG28qA8-18">
          <mxGeometry x="76" y="10" width="20" height="30" as="geometry" />
        </mxCell>
        <mxCell id="FK7bqsTQZ36S5xG28qA8-23" value="&lt;font style=&quot;font-size: 21px;&quot;&gt;RST&lt;/font&gt;" style="text;html=1;strokeColor=none;fillColor=none;align=center;verticalAlign=middle;whiteSpace=wrap;rounded=0;" vertex="1" parent="FK7bqsTQZ36S5xG28qA8-18">
          <mxGeometry x="33" width="30" height="30" as="geometry" />
        </mxCell>
        <mxCell id="FK7bqsTQZ36S5xG28qA8-24" value="&lt;font style=&quot;font-size: 21px;&quot;&gt;CE&lt;/font&gt;" style="text;html=1;strokeColor=none;fillColor=none;align=center;verticalAlign=middle;whiteSpace=wrap;rounded=0;" vertex="1" parent="FK7bqsTQZ36S5xG28qA8-18">
          <mxGeometry y="55" width="30" height="30" as="geometry" />
        </mxCell>
        <mxCell id="FK7bqsTQZ36S5xG28qA8-26" style="edgeStyle=orthogonalEdgeStyle;rounded=0;orthogonalLoop=1;jettySize=auto;html=1;exitX=0.5;exitY=1;exitDx=0;exitDy=0;entryX=0;entryY=0.5;entryDx=0;entryDy=0;jumpStyle=sharp;endArrow=none;endFill=0;" edge="1" parent="1">
          <mxGeometry relative="1" as="geometry">
            <Array as="points">
              <mxPoint x="-1120" y="200" />
              <mxPoint x="-1120" y="390" />
              <mxPoint x="250" y="390" />
              <mxPoint x="250" y="60" />
            </Array>
            <mxPoint x="-1205" y="200" as="sourcePoint" />
            <mxPoint x="325.00000000000045" y="60" as="targetPoint" />
          </mxGeometry>
        </mxCell>
        <mxCell id="FK7bqsTQZ36S5xG28qA8-125" style="edgeStyle=orthogonalEdgeStyle;rounded=0;orthogonalLoop=1;jettySize=auto;html=1;exitX=0.5;exitY=1;exitDx=0;exitDy=0;entryX=0;entryY=0.5;entryDx=0;entryDy=0;endArrow=none;endFill=0;" edge="1" parent="1" source="FK7bqsTQZ36S5xG28qA8-28" target="FK7bqsTQZ36S5xG28qA8-108">
          <mxGeometry relative="1" as="geometry">
            <Array as="points">
              <mxPoint x="-1190" y="200" />
              <mxPoint x="-1190" y="80" />
            </Array>
          </mxGeometry>
        </mxCell>
        <mxCell id="FK7bqsTQZ36S5xG28qA8-28" value="&lt;p style=&quot;line-height: 120%;&quot;&gt;&lt;br&gt;&lt;/p&gt;&lt;p style=&quot;line-height: 120%;&quot;&gt;&lt;br&gt;&lt;/p&gt;" style="shape=offPageConnector;whiteSpace=wrap;html=1;rotation=-90;" vertex="1" parent="1">
          <mxGeometry x="-1235" y="185" width="30" height="30" as="geometry" />
        </mxCell>
        <mxCell id="FK7bqsTQZ36S5xG28qA8-29" style="edgeStyle=orthogonalEdgeStyle;rounded=0;orthogonalLoop=1;jettySize=auto;html=1;exitX=0.5;exitY=1;exitDx=0;exitDy=0;entryX=0;entryY=0.5;entryDx=0;entryDy=0;endArrow=none;endFill=0;jumpStyle=sharp;" edge="1" parent="1" source="FK7bqsTQZ36S5xG28qA8-32" target="FK7bqsTQZ36S5xG28qA8-3">
          <mxGeometry relative="1" as="geometry">
            <Array as="points">
              <mxPoint x="-1180" y="255" />
              <mxPoint x="-1180" y="430" />
              <mxPoint x="281" y="430" />
              <mxPoint x="281" y="105" />
            </Array>
          </mxGeometry>
        </mxCell>
        <mxCell id="FK7bqsTQZ36S5xG28qA8-30" style="edgeStyle=orthogonalEdgeStyle;rounded=0;orthogonalLoop=1;jettySize=auto;html=1;exitX=0.5;exitY=1;exitDx=0;exitDy=0;entryX=0;entryY=0.5;entryDx=0;entryDy=0;endArrow=none;endFill=0;" edge="1" parent="1" source="FK7bqsTQZ36S5xG28qA8-32" target="FK7bqsTQZ36S5xG28qA8-20">
          <mxGeometry relative="1" as="geometry">
            <Array as="points">
              <mxPoint x="-1180" y="255" />
              <mxPoint x="-1180" y="430" />
              <mxPoint x="280" y="430" />
              <mxPoint x="280" y="363" />
            </Array>
          </mxGeometry>
        </mxCell>
        <mxCell id="FK7bqsTQZ36S5xG28qA8-126" style="edgeStyle=orthogonalEdgeStyle;rounded=0;orthogonalLoop=1;jettySize=auto;html=1;exitX=0.5;exitY=1;exitDx=0;exitDy=0;entryX=0;entryY=0.5;entryDx=0;entryDy=0;endArrow=none;endFill=0;" edge="1" parent="1" source="FK7bqsTQZ36S5xG28qA8-32" target="FK7bqsTQZ36S5xG28qA8-104">
          <mxGeometry relative="1" as="geometry">
            <Array as="points">
              <mxPoint x="-1180" y="255" />
              <mxPoint x="-1180" y="125" />
            </Array>
          </mxGeometry>
        </mxCell>
        <mxCell id="FK7bqsTQZ36S5xG28qA8-32" value="&lt;p style=&quot;line-height: 120%;&quot;&gt;&lt;br&gt;&lt;/p&gt;&lt;p style=&quot;line-height: 120%;&quot;&gt;&lt;br&gt;&lt;/p&gt;" style="shape=offPageConnector;whiteSpace=wrap;html=1;rotation=-90;" vertex="1" parent="1">
          <mxGeometry x="-1235" y="240" width="30" height="30" as="geometry" />
        </mxCell>
        <mxCell id="FK7bqsTQZ36S5xG28qA8-39" style="edgeStyle=orthogonalEdgeStyle;rounded=0;orthogonalLoop=1;jettySize=auto;html=1;exitX=0;exitY=0.5;exitDx=0;exitDy=0;entryX=0.5;entryY=1;entryDx=0;entryDy=0;endArrow=none;endFill=0;jumpStyle=sharp;" edge="1" parent="1" source="FK7bqsTQZ36S5xG28qA8-24" target="FK7bqsTQZ36S5xG28qA8-28">
          <mxGeometry relative="1" as="geometry">
            <Array as="points">
              <mxPoint x="250" y="318" />
              <mxPoint x="250" y="390" />
              <mxPoint x="-1120" y="390" />
              <mxPoint x="-1120" y="200" />
            </Array>
          </mxGeometry>
        </mxCell>
        <mxCell id="FK7bqsTQZ36S5xG28qA8-40" style="edgeStyle=orthogonalEdgeStyle;rounded=0;orthogonalLoop=1;jettySize=auto;html=1;exitX=1;exitY=0.5;exitDx=0;exitDy=0;entryX=0.5;entryY=1;entryDx=0;entryDy=0;endArrow=none;endFill=0;" edge="1" parent="1" source="FK7bqsTQZ36S5xG28qA8-22" target="FK7bqsTQZ36S5xG28qA8-9">
          <mxGeometry relative="1" as="geometry" />
        </mxCell>
        <mxCell id="FK7bqsTQZ36S5xG28qA8-41" value="&lt;font style=&quot;font-size: 22px;&quot;&gt;o_cos_fen&lt;/font&gt;" style="text;html=1;align=center;verticalAlign=middle;resizable=0;points=[];autosize=1;strokeColor=none;fillColor=none;" vertex="1" parent="1">
          <mxGeometry x="614" y="254" width="120" height="38" as="geometry" />
        </mxCell>
        <mxCell id="FK7bqsTQZ36S5xG28qA8-42" value="&lt;font style=&quot;font-size: 22px;&quot;&gt;RESET_G&lt;/font&gt;" style="text;html=1;align=center;verticalAlign=middle;resizable=0;points=[];autosize=1;strokeColor=none;fillColor=none;" vertex="1" parent="1">
          <mxGeometry x="-1124" y="-249" width="130" height="40" as="geometry" />
        </mxCell>
        <mxCell id="FK7bqsTQZ36S5xG28qA8-43" value="&lt;font style=&quot;font-size: 22px;&quot;&gt;i_mode&lt;/font&gt;" style="text;html=1;align=center;verticalAlign=middle;resizable=0;points=[];autosize=1;strokeColor=none;fillColor=none;" vertex="1" parent="1">
          <mxGeometry x="-1355" y="15" width="100" height="40" as="geometry" />
        </mxCell>
        <mxCell id="FK7bqsTQZ36S5xG28qA8-44" value="&lt;font style=&quot;font-size: 22px;&quot;&gt;i_clk&lt;/font&gt;" style="text;html=1;align=center;verticalAlign=middle;resizable=0;points=[];autosize=1;strokeColor=none;fillColor=none;" vertex="1" parent="1">
          <mxGeometry x="-1305" y="235" width="70" height="40" as="geometry" />
        </mxCell>
        <mxCell id="FK7bqsTQZ36S5xG28qA8-45" value="&lt;font style=&quot;font-size: 22px;&quot;&gt;i_cen&lt;/font&gt;" style="text;html=1;align=center;verticalAlign=middle;resizable=0;points=[];autosize=1;strokeColor=none;fillColor=none;" vertex="1" parent="1">
          <mxGeometry x="-1310" y="180" width="80" height="40" as="geometry" />
        </mxCell>
        <mxCell id="FK7bqsTQZ36S5xG28qA8-48" value="&lt;font style=&quot;font-size: 18px;&quot;&gt;4&lt;/font&gt;" style="text;html=1;align=center;verticalAlign=middle;resizable=0;points=[];autosize=1;strokeColor=none;fillColor=none;" vertex="1" parent="1">
          <mxGeometry x="-577" y="-50" width="30" height="40" as="geometry" />
        </mxCell>
        <mxCell id="FK7bqsTQZ36S5xG28qA8-49" value="" style="endArrow=none;html=1;rounded=0;" edge="1" parent="1">
          <mxGeometry width="50" height="50" relative="1" as="geometry">
            <mxPoint x="-567" y="-10" as="sourcePoint" />
            <mxPoint x="-527" y="-40" as="targetPoint" />
          </mxGeometry>
        </mxCell>
        <mxCell id="FK7bqsTQZ36S5xG28qA8-51" value="" style="endArrow=none;html=1;rounded=0;" edge="1" parent="1">
          <mxGeometry width="50" height="50" relative="1" as="geometry">
            <mxPoint x="471" y="29" as="sourcePoint" />
            <mxPoint x="511" y="-1" as="targetPoint" />
          </mxGeometry>
        </mxCell>
        <mxCell id="FK7bqsTQZ36S5xG28qA8-53" value="&lt;font style=&quot;font-size: 18px;&quot;&gt;16&lt;/font&gt;" style="text;html=1;align=center;verticalAlign=middle;resizable=0;points=[];autosize=1;strokeColor=none;fillColor=none;" vertex="1" parent="1">
          <mxGeometry x="457" y="-13" width="38" height="34" as="geometry" />
        </mxCell>
        <mxCell id="FK7bqsTQZ36S5xG28qA8-54" value="" style="group" vertex="1" connectable="0" parent="1">
          <mxGeometry x="338" y="515" width="96" height="140" as="geometry" />
        </mxCell>
        <mxCell id="FK7bqsTQZ36S5xG28qA8-55" value="" style="rounded=0;whiteSpace=wrap;html=1;" vertex="1" parent="FK7bqsTQZ36S5xG28qA8-54">
          <mxGeometry width="96" height="140" as="geometry" />
        </mxCell>
        <mxCell id="FK7bqsTQZ36S5xG28qA8-56" value="" style="triangle;whiteSpace=wrap;html=1;rotation=0;" vertex="1" parent="FK7bqsTQZ36S5xG28qA8-54">
          <mxGeometry y="100" width="20" height="30" as="geometry" />
        </mxCell>
        <mxCell id="FK7bqsTQZ36S5xG28qA8-57" value="&lt;font style=&quot;font-size: 21px;&quot;&gt;D&lt;/font&gt;" style="text;html=1;strokeColor=none;fillColor=none;align=center;verticalAlign=middle;whiteSpace=wrap;rounded=0;" vertex="1" parent="FK7bqsTQZ36S5xG28qA8-54">
          <mxGeometry y="10" width="20" height="30" as="geometry" />
        </mxCell>
        <mxCell id="FK7bqsTQZ36S5xG28qA8-58" value="&lt;font style=&quot;font-size: 21px;&quot;&gt;Q&lt;/font&gt;" style="text;html=1;strokeColor=none;fillColor=none;align=center;verticalAlign=middle;whiteSpace=wrap;rounded=0;" vertex="1" parent="FK7bqsTQZ36S5xG28qA8-54">
          <mxGeometry x="76" y="10" width="20" height="30" as="geometry" />
        </mxCell>
        <mxCell id="FK7bqsTQZ36S5xG28qA8-59" value="&lt;font style=&quot;font-size: 21px;&quot;&gt;RST&lt;/font&gt;" style="text;html=1;strokeColor=none;fillColor=none;align=center;verticalAlign=middle;whiteSpace=wrap;rounded=0;" vertex="1" parent="FK7bqsTQZ36S5xG28qA8-54">
          <mxGeometry x="33" width="30" height="30" as="geometry" />
        </mxCell>
        <mxCell id="FK7bqsTQZ36S5xG28qA8-60" value="&lt;font style=&quot;font-size: 21px;&quot;&gt;CE&lt;/font&gt;" style="text;html=1;strokeColor=none;fillColor=none;align=center;verticalAlign=middle;whiteSpace=wrap;rounded=0;" vertex="1" parent="FK7bqsTQZ36S5xG28qA8-54">
          <mxGeometry y="55" width="30" height="30" as="geometry" />
        </mxCell>
        <mxCell id="FK7bqsTQZ36S5xG28qA8-71" style="edgeStyle=orthogonalEdgeStyle;rounded=0;orthogonalLoop=1;jettySize=auto;html=1;exitX=0.5;exitY=0;exitDx=0;exitDy=0;entryX=0.5;entryY=1;entryDx=0;entryDy=0;endArrow=none;endFill=0;jumpStyle=sharp;" edge="1" parent="1" source="FK7bqsTQZ36S5xG28qA8-59" target="FK7bqsTQZ36S5xG28qA8-8">
          <mxGeometry relative="1" as="geometry">
            <Array as="points">
              <mxPoint x="402" y="480" />
              <mxPoint x="222" y="480" />
              <mxPoint x="222" y="-109" />
            </Array>
          </mxGeometry>
        </mxCell>
        <mxCell id="FK7bqsTQZ36S5xG28qA8-72" value="" style="endArrow=none;html=1;rounded=0;" edge="1" parent="1">
          <mxGeometry width="50" height="50" relative="1" as="geometry">
            <mxPoint x="-1210" y="-214" as="sourcePoint" />
            <mxPoint x="-1170" y="-244" as="targetPoint" />
          </mxGeometry>
        </mxCell>
        <mxCell id="FK7bqsTQZ36S5xG28qA8-73" value="" style="endArrow=none;html=1;rounded=0;" edge="1" parent="1">
          <mxGeometry width="50" height="50" relative="1" as="geometry">
            <mxPoint x="-1210" y="-144" as="sourcePoint" />
            <mxPoint x="-1170" y="-174" as="targetPoint" />
          </mxGeometry>
        </mxCell>
        <mxCell id="FK7bqsTQZ36S5xG28qA8-74" value="&lt;font style=&quot;font-size: 18px;&quot;&gt;1&lt;/font&gt;" style="text;html=1;align=center;verticalAlign=middle;resizable=0;points=[];autosize=1;strokeColor=none;fillColor=none;" vertex="1" parent="1">
          <mxGeometry x="-1210" y="-184" width="30" height="40" as="geometry" />
        </mxCell>
        <mxCell id="FK7bqsTQZ36S5xG28qA8-75" value="&lt;font style=&quot;font-size: 18px;&quot;&gt;1&lt;/font&gt;" style="text;html=1;align=center;verticalAlign=middle;resizable=0;points=[];autosize=1;strokeColor=none;fillColor=none;" vertex="1" parent="1">
          <mxGeometry x="-1210" y="-259" width="30" height="40" as="geometry" />
        </mxCell>
        <mxCell id="FK7bqsTQZ36S5xG28qA8-78" value="&lt;font style=&quot;font-size: 18px;&quot;&gt;1&lt;/font&gt;" style="text;html=1;align=center;verticalAlign=middle;resizable=0;points=[];autosize=1;strokeColor=none;fillColor=none;" vertex="1" parent="1">
          <mxGeometry x="-1210" y="-209" width="30" height="40" as="geometry" />
        </mxCell>
        <mxCell id="FK7bqsTQZ36S5xG28qA8-79" value="" style="endArrow=none;html=1;rounded=0;" edge="1" parent="1">
          <mxGeometry width="50" height="50" relative="1" as="geometry">
            <mxPoint x="-1200" y="-109" as="sourcePoint" />
            <mxPoint x="-1160" y="-139" as="targetPoint" />
          </mxGeometry>
        </mxCell>
        <mxCell id="FK7bqsTQZ36S5xG28qA8-80" value="&lt;font style=&quot;font-size: 18px;&quot;&gt;1&lt;/font&gt;" style="text;html=1;align=center;verticalAlign=middle;resizable=0;points=[];autosize=1;strokeColor=none;fillColor=none;" vertex="1" parent="1">
          <mxGeometry x="-1190" y="-129" width="30" height="40" as="geometry" />
        </mxCell>
        <mxCell id="FK7bqsTQZ36S5xG28qA8-81" value="" style="endArrow=none;html=1;rounded=0;" edge="1" parent="1">
          <mxGeometry width="50" height="50" relative="1" as="geometry">
            <mxPoint x="-1215" y="-184" as="sourcePoint" />
            <mxPoint x="-1175" y="-214" as="targetPoint" />
          </mxGeometry>
        </mxCell>
        <mxCell id="FK7bqsTQZ36S5xG28qA8-86" value="&lt;font style=&quot;font-size: 22px;&quot;&gt;BUS_SORTIE&lt;/font&gt;" style="text;html=1;align=center;verticalAlign=middle;resizable=0;points=[];autosize=1;strokeColor=none;fillColor=none;" vertex="1" parent="1">
          <mxGeometry x="614" y="-5" width="157" height="38" as="geometry" />
        </mxCell>
        <mxCell id="FK7bqsTQZ36S5xG28qA8-87" value="&lt;p style=&quot;line-height: 120%;&quot;&gt;&lt;br&gt;&lt;/p&gt;&lt;p style=&quot;line-height: 120%;&quot;&gt;&lt;br&gt;&lt;/p&gt;" style="shape=offPageConnector;whiteSpace=wrap;html=1;rotation=-90;direction=west;" vertex="1" parent="1">
          <mxGeometry x="584" y="-1" width="30" height="30" as="geometry" />
        </mxCell>
        <mxCell id="FK7bqsTQZ36S5xG28qA8-88" style="edgeStyle=orthogonalEdgeStyle;rounded=0;orthogonalLoop=1;jettySize=auto;html=1;exitX=1;exitY=0.5;exitDx=0;exitDy=0;entryX=0.5;entryY=1;entryDx=0;entryDy=0;" edge="1" parent="1" source="FK7bqsTQZ36S5xG28qA8-5" target="FK7bqsTQZ36S5xG28qA8-87">
          <mxGeometry relative="1" as="geometry" />
        </mxCell>
        <mxCell id="FK7bqsTQZ36S5xG28qA8-89" value="&lt;p style=&quot;line-height: 120%;&quot;&gt;&lt;br&gt;&lt;/p&gt;&lt;p style=&quot;line-height: 120%;&quot;&gt;&lt;br&gt;&lt;/p&gt;" style="shape=offPageConnector;whiteSpace=wrap;html=1;rotation=-90;direction=west;" vertex="1" parent="1">
          <mxGeometry x="574" y="525" width="30" height="30" as="geometry" />
        </mxCell>
        <mxCell id="FK7bqsTQZ36S5xG28qA8-90" style="edgeStyle=orthogonalEdgeStyle;rounded=0;orthogonalLoop=1;jettySize=auto;html=1;exitX=1;exitY=0.5;exitDx=0;exitDy=0;entryX=0.5;entryY=1;entryDx=0;entryDy=0;endArrow=none;endFill=0;" edge="1" parent="1" target="FK7bqsTQZ36S5xG28qA8-89" source="FK7bqsTQZ36S5xG28qA8-58">
          <mxGeometry relative="1" as="geometry">
            <mxPoint x="450" y="536" as="sourcePoint" />
            <Array as="points">
              <mxPoint x="570" y="540" />
            </Array>
          </mxGeometry>
        </mxCell>
        <mxCell id="FK7bqsTQZ36S5xG28qA8-91" value="&lt;font style=&quot;font-size: 22px;&quot;&gt;o_sin_fen&lt;/font&gt;" style="text;html=1;align=center;verticalAlign=middle;resizable=0;points=[];autosize=1;strokeColor=none;fillColor=none;" vertex="1" parent="1">
          <mxGeometry x="604" y="521" width="113" height="38" as="geometry" />
        </mxCell>
        <mxCell id="FK7bqsTQZ36S5xG28qA8-95" style="edgeStyle=orthogonalEdgeStyle;rounded=0;orthogonalLoop=1;jettySize=auto;html=1;exitX=0.5;exitY=0;exitDx=0;exitDy=0;entryX=0.5;entryY=1;entryDx=0;entryDy=0;" edge="1" parent="1" source="FK7bqsTQZ36S5xG28qA8-6" target="FK7bqsTQZ36S5xG28qA8-8">
          <mxGeometry relative="1" as="geometry" />
        </mxCell>
        <mxCell id="FK7bqsTQZ36S5xG28qA8-96" style="edgeStyle=orthogonalEdgeStyle;rounded=0;orthogonalLoop=1;jettySize=auto;html=1;exitX=0;exitY=0.5;exitDx=0;exitDy=0;entryX=0.5;entryY=1;entryDx=0;entryDy=0;" edge="1" parent="1" source="FK7bqsTQZ36S5xG28qA8-60" target="FK7bqsTQZ36S5xG28qA8-28">
          <mxGeometry relative="1" as="geometry">
            <Array as="points">
              <mxPoint x="250" y="585" />
              <mxPoint x="250" y="390" />
              <mxPoint x="-1120" y="390" />
              <mxPoint x="-1120" y="200" />
            </Array>
          </mxGeometry>
        </mxCell>
        <mxCell id="FK7bqsTQZ36S5xG28qA8-97" style="edgeStyle=orthogonalEdgeStyle;rounded=0;orthogonalLoop=1;jettySize=auto;html=1;exitX=0;exitY=0.5;exitDx=0;exitDy=0;entryX=0.5;entryY=1;entryDx=0;entryDy=0;endArrow=none;endFill=0;" edge="1" parent="1" source="FK7bqsTQZ36S5xG28qA8-56" target="FK7bqsTQZ36S5xG28qA8-32">
          <mxGeometry relative="1" as="geometry">
            <Array as="points">
              <mxPoint x="280" y="630" />
              <mxPoint x="280" y="430" />
              <mxPoint x="-1180" y="430" />
              <mxPoint x="-1180" y="255" />
            </Array>
          </mxGeometry>
        </mxCell>
        <mxCell id="FK7bqsTQZ36S5xG28qA8-99" value="Mux" style="shadow=0;dashed=0;align=center;html=1;strokeWidth=1;shape=mxgraph.electrical.abstract.mux2;whiteSpace=wrap;selectorPins=2;" vertex="1" parent="1">
          <mxGeometry x="-820" y="80" width="80" height="120" as="geometry" />
        </mxCell>
        <mxCell id="FK7bqsTQZ36S5xG28qA8-100" value="Mux" style="shadow=0;dashed=0;align=center;html=1;strokeWidth=1;shape=mxgraph.electrical.abstract.mux2;whiteSpace=wrap;selectorPins=2;" vertex="1" parent="1">
          <mxGeometry x="-820" y="248" width="80" height="120" as="geometry" />
        </mxCell>
        <mxCell id="FK7bqsTQZ36S5xG28qA8-101" value="Mux" style="shadow=0;dashed=0;align=center;html=1;strokeWidth=1;shape=mxgraph.electrical.abstract.mux2;whiteSpace=wrap;selectorPins=2;" vertex="1" parent="1">
          <mxGeometry x="-820" y="-105" width="80" height="120" as="geometry" />
        </mxCell>
        <mxCell id="FK7bqsTQZ36S5xG28qA8-102" value="" style="group" vertex="1" connectable="0" parent="1">
          <mxGeometry x="-1160" y="10" width="96" height="140" as="geometry" />
        </mxCell>
        <mxCell id="FK7bqsTQZ36S5xG28qA8-103" value="" style="rounded=0;whiteSpace=wrap;html=1;" vertex="1" parent="FK7bqsTQZ36S5xG28qA8-102">
          <mxGeometry width="96" height="140" as="geometry" />
        </mxCell>
        <mxCell id="FK7bqsTQZ36S5xG28qA8-104" value="" style="triangle;whiteSpace=wrap;html=1;rotation=0;" vertex="1" parent="FK7bqsTQZ36S5xG28qA8-102">
          <mxGeometry y="100" width="20" height="30" as="geometry" />
        </mxCell>
        <mxCell id="FK7bqsTQZ36S5xG28qA8-105" value="&lt;font style=&quot;font-size: 21px;&quot;&gt;D&lt;/font&gt;" style="text;html=1;strokeColor=none;fillColor=none;align=center;verticalAlign=middle;whiteSpace=wrap;rounded=0;" vertex="1" parent="FK7bqsTQZ36S5xG28qA8-102">
          <mxGeometry y="10" width="20" height="30" as="geometry" />
        </mxCell>
        <mxCell id="FK7bqsTQZ36S5xG28qA8-106" value="&lt;font style=&quot;font-size: 21px;&quot;&gt;Q&lt;/font&gt;" style="text;html=1;strokeColor=none;fillColor=none;align=center;verticalAlign=middle;whiteSpace=wrap;rounded=0;" vertex="1" parent="FK7bqsTQZ36S5xG28qA8-102">
          <mxGeometry x="76" y="10" width="20" height="30" as="geometry" />
        </mxCell>
        <mxCell id="FK7bqsTQZ36S5xG28qA8-107" value="&lt;font style=&quot;font-size: 21px;&quot;&gt;RST&lt;/font&gt;" style="text;html=1;strokeColor=none;fillColor=none;align=center;verticalAlign=middle;whiteSpace=wrap;rounded=0;" vertex="1" parent="FK7bqsTQZ36S5xG28qA8-102">
          <mxGeometry x="33" width="30" height="30" as="geometry" />
        </mxCell>
        <mxCell id="FK7bqsTQZ36S5xG28qA8-108" value="&lt;font style=&quot;font-size: 21px;&quot;&gt;CE&lt;/font&gt;" style="text;html=1;strokeColor=none;fillColor=none;align=center;verticalAlign=middle;whiteSpace=wrap;rounded=0;" vertex="1" parent="FK7bqsTQZ36S5xG28qA8-102">
          <mxGeometry y="55" width="30" height="30" as="geometry" />
        </mxCell>
        <mxCell id="FK7bqsTQZ36S5xG28qA8-112" style="edgeStyle=orthogonalEdgeStyle;rounded=0;orthogonalLoop=1;jettySize=auto;html=1;exitX=1;exitY=0.5;exitDx=0;exitDy=0;entryX=0.1875;entryY=1;entryDx=10;entryDy=0;entryPerimeter=0;" edge="1" parent="1" source="FK7bqsTQZ36S5xG28qA8-106" target="FK7bqsTQZ36S5xG28qA8-101">
          <mxGeometry relative="1" as="geometry" />
        </mxCell>
        <mxCell id="FK7bqsTQZ36S5xG28qA8-113" style="edgeStyle=orthogonalEdgeStyle;rounded=0;orthogonalLoop=1;jettySize=auto;html=1;exitX=1;exitY=0.5;exitDx=0;exitDy=0;entryX=0.5625;entryY=1;entryDx=10;entryDy=0;entryPerimeter=0;" edge="1" parent="1" source="FK7bqsTQZ36S5xG28qA8-106" target="FK7bqsTQZ36S5xG28qA8-101">
          <mxGeometry relative="1" as="geometry" />
        </mxCell>
        <mxCell id="FK7bqsTQZ36S5xG28qA8-114" style="edgeStyle=orthogonalEdgeStyle;rounded=0;orthogonalLoop=1;jettySize=auto;html=1;exitX=1;exitY=0.5;exitDx=0;exitDy=0;entryX=0.1875;entryY=1;entryDx=10;entryDy=0;entryPerimeter=0;" edge="1" parent="1" source="FK7bqsTQZ36S5xG28qA8-106" target="FK7bqsTQZ36S5xG28qA8-99">
          <mxGeometry relative="1" as="geometry">
            <Array as="points">
              <mxPoint x="-930" y="35" />
              <mxPoint x="-930" y="220" />
              <mxPoint x="-795" y="220" />
            </Array>
          </mxGeometry>
        </mxCell>
        <mxCell id="FK7bqsTQZ36S5xG28qA8-115" style="edgeStyle=orthogonalEdgeStyle;rounded=0;orthogonalLoop=1;jettySize=auto;html=1;exitX=1;exitY=0.5;exitDx=0;exitDy=0;entryX=0.5625;entryY=1;entryDx=10;entryDy=0;entryPerimeter=0;" edge="1" parent="1" source="FK7bqsTQZ36S5xG28qA8-106" target="FK7bqsTQZ36S5xG28qA8-99">
          <mxGeometry relative="1" as="geometry">
            <mxPoint x="-765" y="210" as="targetPoint" />
            <Array as="points">
              <mxPoint x="-930" y="35" />
              <mxPoint x="-930" y="220" />
              <mxPoint x="-765" y="220" />
            </Array>
          </mxGeometry>
        </mxCell>
        <mxCell id="FK7bqsTQZ36S5xG28qA8-117" style="edgeStyle=orthogonalEdgeStyle;rounded=0;orthogonalLoop=1;jettySize=auto;html=1;exitX=1;exitY=0.5;exitDx=0;exitDy=0;entryX=0.1875;entryY=1;entryDx=10;entryDy=0;entryPerimeter=0;" edge="1" parent="1" source="FK7bqsTQZ36S5xG28qA8-106" target="FK7bqsTQZ36S5xG28qA8-100">
          <mxGeometry relative="1" as="geometry">
            <Array as="points">
              <mxPoint x="-930" y="35" />
              <mxPoint x="-930" y="380" />
              <mxPoint x="-795" y="380" />
            </Array>
          </mxGeometry>
        </mxCell>
        <mxCell id="FK7bqsTQZ36S5xG28qA8-118" style="edgeStyle=orthogonalEdgeStyle;rounded=0;orthogonalLoop=1;jettySize=auto;html=1;exitX=1;exitY=0.5;exitDx=0;exitDy=0;entryX=0.5625;entryY=1;entryDx=10;entryDy=0;entryPerimeter=0;" edge="1" parent="1" source="FK7bqsTQZ36S5xG28qA8-106" target="FK7bqsTQZ36S5xG28qA8-100">
          <mxGeometry relative="1" as="geometry">
            <Array as="points">
              <mxPoint x="-930" y="35" />
              <mxPoint x="-930" y="380" />
              <mxPoint x="-765" y="380" />
            </Array>
          </mxGeometry>
        </mxCell>
        <mxCell id="FK7bqsTQZ36S5xG28qA8-121" value="&lt;p style=&quot;line-height: 120%;&quot;&gt;&lt;br&gt;&lt;/p&gt;&lt;p style=&quot;line-height: 120%;&quot;&gt;&lt;br&gt;&lt;/p&gt;" style="shape=offPageConnector;whiteSpace=wrap;html=1;rotation=-90;" vertex="1" parent="1">
          <mxGeometry x="-994" y="-169" width="30" height="30" as="geometry" />
        </mxCell>
        <mxCell id="FK7bqsTQZ36S5xG28qA8-122" value="&lt;p style=&quot;line-height: 120%;&quot;&gt;&lt;br&gt;&lt;/p&gt;&lt;p style=&quot;line-height: 120%;&quot;&gt;&lt;br&gt;&lt;/p&gt;" style="shape=offPageConnector;whiteSpace=wrap;html=1;rotation=-90;" vertex="1" parent="1">
          <mxGeometry x="-994" y="-129" width="30" height="30" as="geometry" />
        </mxCell>
        <mxCell id="FK7bqsTQZ36S5xG28qA8-123" value="&lt;p style=&quot;line-height: 120%;&quot;&gt;&lt;br&gt;&lt;/p&gt;&lt;p style=&quot;line-height: 120%;&quot;&gt;&lt;br&gt;&lt;/p&gt;" style="shape=offPageConnector;whiteSpace=wrap;html=1;rotation=-90;" vertex="1" parent="1">
          <mxGeometry x="-994" y="-89" width="30" height="30" as="geometry" />
        </mxCell>
        <mxCell id="FK7bqsTQZ36S5xG28qA8-124" value="&lt;p style=&quot;line-height: 120%;&quot;&gt;&lt;br&gt;&lt;/p&gt;&lt;p style=&quot;line-height: 120%;&quot;&gt;&lt;br&gt;&lt;/p&gt;" style="shape=offPageConnector;whiteSpace=wrap;html=1;rotation=-90;" vertex="1" parent="1">
          <mxGeometry x="-994" y="-50" width="30" height="30" as="geometry" />
        </mxCell>
      </root>
    </mxGraphModel>
  </diagram>
</mxfile>
